<svg width="2976.38" height="4209.45" xmlns="http://www.w3.org/2000/svg" version="1.2" baseProfile="tiny"><path fill="#fff" fill-rule="evenodd" d="M0 0h2976.38v4209.45H0V0"/><path class="StaffLines" fill="none" stroke="#000" stroke-width="2.73" stroke-linejoin="bevel" d="M297.882 386.22H2763.78M297.882 411.024H2763.78M297.882 435.827H2763.78M297.882 460.63H2763.78M297.882 485.433H2763.78M297.882 948.469H2763.78M297.882 973.272H2763.78M297.882 998.076H2763.78M297.882 1022.88H2763.78M297.882 1047.68H2763.78M297.882 1510.72H2763.78M297.882 1535.52H2763.78M297.882 1560.32H2763.78M297.882 1585.13H2763.78M297.882 1609.93H2763.78M297.882 2072.97H2763.78M297.882 2097.77H2763.78M297.882 2122.57H2763.78M297.882 2147.38H2763.78M297.882 2172.18H2763.78"/><path class="MeasureNumber" d="M314.241 308.302h-1.156c-2.203 1.64-6.437 3.031-9.328 3.031l-.469 1.766h2.75c2.438 0 2.719.078 2.719.796 0 .36 0 .36-.391 1.797l-4.281 16c-.531 2-.562 2.125-.922 2.485-.406.39-1.25.515-3.359.562h-1.719l-.203 1.875h14.797l.234-1.875h-2.156c-2.594 0-3.156-.203-3.156-1.078 0-.281.156-1.203.359-1.969l6.281-23.39m10.188 14.922c.687-3.532 1.484-5.719 3-8.407 1.812-3.156 3.969-4.765 6.359-4.765 1.25 0 2 .484 2 1.25 0 .281-.078.437-.359.953-.36.687-.516 1.156-.516 1.765 0 1.282.953 2.157 2.313 2.157 1.64 0 2.765-1.203 2.765-3 0-2.719-2.562-4.719-6.125-4.719-3.75 0-7.109 2-9.828 5.844-2.797 3.953-4.484 9.031-4.484 13.468 0 5.891 2.922 9.438 7.797 9.438 3 0 5.687-1.188 7.609-3.313 1.75-2 2.828-4.875 2.828-7.515 0-4.078-2.75-6.922-6.75-6.922-2.797 0-4.969 1.203-6.609 3.766m5.328-1.454c2.484 0 3.844 1.719 3.844 4.844 0 5.078-2.688 8.953-6.25 8.953-2.563 0-4.078-1.875-4.078-5.078 0-5 2.765-8.719 6.484-8.719"/><path class="InstrumentName" d="M213.098 2103.96v2.36h.907c2.843.05 3.797.21 4.187.71.313.43.313.54.313 3.09v23.8c0 2.56 0 2.65-.313 3.11-.39.5-1.344.7-4.187.7h-.907v2.34h18.157c8.64 0 13.843-3.65 13.843-9.79 0-5-3.14-7.86-10-9.05 2.407-.5 3.5-.95 4.797-1.91 2.063-1.54 3.313-4 3.313-6.5 0-3.25-2-6.4-4.906-7.65-1.797-.8-4.297-1.21-7.25-1.21h-17.954m11 16.27v-11.41c0-1.95.657-2.45 3.297-2.5h2c2.297 0 4.203.39 5.25 1.05 1.797 1.09 2.75 3.2 2.75 6 0 4.95-2.39 6.86-8.843 6.86h-4.454m0 2.34h4.407c7.64 0 10.453 2.05 10.453 7.55 0 3.2-1.11 5.5-3.063 6.45-1.547.8-3.64 1.16-6.797 1.16h-2.093c-2.5 0-3-.5-2.907-3.16v-12m30.438 11.96c-1.75 0-3.141 1.39-3.141 3.09 0 1.75 1.391 3.16 3.094 3.16a3.15 3.15 0 003.156-3.16c0-1.7-1.406-3.09-3.109-3.09M246.255 1541.72h-29.953l-.75 13.9h2.14c.36-2.5.75-4.4 1.36-6 1.296-3.7 3.703-5.55 7.093-5.55 1.657 0 2.36.55 2.36 1.8v25.8c0 2.56 0 2.65-.313 3.11-.39.5-1.344.7-4.187.7h-1.313v2.34h17.156v-2.34h-1.296c-2.797 0-3.75-.2-4.157-.7-.297-.46-.297-.55-.297-3.11v-25.8c0-1.25.704-1.8 2.344-1.8 3.063 0 5.516 1.71 6.766 4.71.75 1.84 1.25 4 1.64 6.84h2.157l-.75-13.9m4.875 30.56c-1.75 0-3.141 1.39-3.141 3.09 0 1.75 1.391 3.16 3.094 3.16a3.15 3.15 0 003.156-3.16c0-1.7-1.406-3.09-3.109-3.09M243.552 979.622h-1.907l-2 2.954c-3.64-2.657-5.5-3.36-8.953-3.36-4.75 0-8.797 2-12.14 6-3.204 3.813-4.704 8.016-4.704 13.156 0 10.798 7.047 18.458 16.907 18.458 8 0 13.093-4.71 14.25-13.1l-2.36-.4c-1.343 7.45-5.14 11.15-11.297 11.15-7.406 0-10.906-5.11-10.906-15.904 0-5.704.75-9.454 2.453-12.454 1.547-2.796 4.61-4.546 7.86-4.546 3.5 0 6.593 1.843 8.5 5.046.953 1.657 1.64 3.5 2.843 7.454h2.204l-.75-14.454m10.734 30.908c-1.75 0-3.141 1.39-3.141 3.09 0 1.75 1.391 3.16 3.094 3.16a3.15 3.15 0 003.156-3.16c0-1.7-1.406-3.09-3.109-3.09M242.895 417.421h-1.843l-2 3c-2.407-2.25-5.547-3.454-9.11-3.454-6.594 0-10.937 4.157-10.937 10.454 0 5.453 2.687 8.156 10.047 10.062l4.75 1.188c3.703.953 4.046 1.062 5.093 1.859 1.5 1.141 2.313 2.797 2.313 4.75 0 2-.766 3.641-2.266 5.047-1.64 1.406-3.297 1.953-6.047 1.953-3.703 0-6.343-1.156-8.703-3.75-2.094-2.297-3.14-4.703-3.89-8.547h-2.157l.203 14.25h1.954l2.25-3.406c3.343 2.75 6.093 3.75 10.5 3.75 7.343 0 12.046-4.297 12.046-11 0-3.156-1-5.75-3-7.656-1.343-1.297-3.296-2.141-7.296-3.141l-5.36-1.359c-4.437-1.141-6.547-3.094-6.547-6.141 0-3.5 2.86-5.906 7.11-5.906 3.5 0 6.343 1.5 8.343 4.343 1.454 2.063 2.407 4.157 3 6.704h2.157l-.61-13m11.032 30.859c-1.75 0-3.141 1.391-3.141 3.094 0 1.75 1.391 3.156 3.094 3.156a3.147 3.147 0 003.156-3.156c0-1.703-1.406-3.094-3.109-3.094"/><path class="SlurSegment" stroke="#000" stroke-width="1.74" stroke-linecap="round" stroke-linejoin="round" fill-rule="evenodd" d="M1407.26 1632.25c36.95 17.09 93.46-1.51 113.04-37.2-17.41 42.28-73.92 60.89-113.04 37.2M2064.19 1107.21c37.63 22.98 101.57 10.58 127.89-24.8-24.99 42.2-88.93 54.6-127.89 24.8"/><path class="BarLine" stroke="#000" stroke-width="4.46" stroke-linejoin="bevel" d="M300.114 2071.6v101.94"/><path class="BarLine" d="M877.342 2110.17c0-2.883-2.294-5.255-5.162-5.255-2.883 0-5.162 2.372-5.162 5.255s2.279 5.255 5.162 5.255c2.868 0 5.162-2.372 5.162-5.255M877.342 2134.97c0-2.883-2.294-5.255-5.162-5.255-2.883 0-5.162 2.372-5.162 5.255s2.279 5.255 5.162 5.255c2.868 0 5.162-2.372 5.162-5.255"/><path class="BarLine" stroke="#000" stroke-width="4.46" stroke-linejoin="bevel" d="M889.539 2071.6v101.94"/><path class="BarLine" stroke="#000" stroke-width="13.64" stroke-linejoin="bevel" d="M906.901 2071.6v101.94"/><path class="BarLine" stroke="#000" stroke-width="4.46" stroke-linejoin="bevel" d="M1356.67 2071.6v101.94M1800.3 2071.6v101.94M2306.07 2071.6v101.94M2739.6 2071.6v101.94"/><path class="BarLine" stroke="#000" stroke-width="13.64" stroke-linejoin="bevel" d="M2756.96 2071.6v101.94"/><path class="BarLine" stroke="#000" stroke-width="4.46" stroke-linejoin="bevel" d="M300.114 1509.35v563.62"/><path class="BarLine" d="M877.342 1547.92c0-2.883-2.294-5.255-5.162-5.255-2.883 0-5.162 2.372-5.162 5.255s2.279 5.255 5.162 5.255c2.868 0 5.162-2.372 5.162-5.255M877.342 1572.73c0-2.883-2.294-5.255-5.162-5.255-2.883 0-5.162 2.372-5.162 5.255s2.279 5.255 5.162 5.255c2.868 0 5.162-2.372 5.162-5.255"/><path class="BarLine" stroke="#000" stroke-width="4.46" stroke-linejoin="bevel" d="M889.539 1509.35v101.94"/><path class="BarLine" stroke="#000" stroke-width="13.64" stroke-linejoin="bevel" d="M906.901 1509.35v101.94"/><path class="BarLine" stroke="#000" stroke-width="4.46" stroke-linejoin="bevel" d="M1356.67 1509.35v101.94M1800.3 1509.35v101.94M2306.07 1509.35v101.94M2739.6 1509.35v101.94"/><path class="BarLine" stroke="#000" stroke-width="13.64" stroke-linejoin="bevel" d="M2756.96 1509.35v101.94"/><path class="BarLine" stroke="#000" stroke-width="4.46" stroke-linejoin="bevel" d="M300.114 947.105v563.615"/><path class="BarLine" d="M877.342 985.674c0-2.883-2.294-5.255-5.162-5.255-2.883 0-5.162 2.372-5.162 5.255s2.279 5.255 5.162 5.255c2.868 0 5.162-2.372 5.162-5.255M877.342 1010.48c0-2.883-2.294-5.255-5.162-5.255-2.883 0-5.162 2.372-5.162 5.255s2.279 5.255 5.162 5.255c2.868 0 5.162-2.372 5.162-5.255"/><path class="BarLine" stroke="#000" stroke-width="4.46" stroke-linejoin="bevel" d="M889.539 947.105v101.945"/><path class="BarLine" stroke="#000" stroke-width="13.64" stroke-linejoin="bevel" d="M906.901 947.105v101.945"/><path class="BarLine" stroke="#000" stroke-width="4.46" stroke-linejoin="bevel" d="M1356.67 947.105v101.945M1800.3 947.105v101.945M2306.07 947.105v101.945M2739.6 947.105v101.945"/><path class="BarLine" stroke="#000" stroke-width="13.64" stroke-linejoin="bevel" d="M2756.96 947.105v101.945"/><path class="BarLine" stroke="#000" stroke-width="4.46" stroke-linejoin="bevel" d="M300.114 384.856v563.613"/><path class="BarLine" d="M877.342 423.425c0-2.883-2.294-5.255-5.162-5.255-2.883 0-5.162 2.372-5.162 5.255s2.279 5.255 5.162 5.255c2.868 0 5.162-2.372 5.162-5.255M877.342 448.228c0-2.883-2.294-5.255-5.162-5.255-2.883 0-5.162 2.372-5.162 5.255s2.279 5.255 5.162 5.255c2.868 0 5.162-2.372 5.162-5.255"/><path class="BarLine" stroke="#000" stroke-width="4.46" stroke-linejoin="bevel" d="M889.539 384.856v101.941"/><path class="BarLine" stroke="#000" stroke-width="13.64" stroke-linejoin="bevel" d="M906.901 384.856v101.941"/><path class="BarLine" stroke="#000" stroke-width="4.46" stroke-linejoin="bevel" d="M1356.67 384.856v101.941M1800.3 384.856v101.941M2306.07 384.856v101.941M2739.6 384.856v101.941"/><path class="BarLine" stroke="#000" stroke-width="13.64" stroke-linejoin="bevel" d="M2756.96 384.856v101.941"/><path class="Accidental" d="M470.79 1061.98c.605-.109 1.101-.806 1.101-1.396v-5.86c0-.79-.604-1.379-1.395-1.379h-.202l-3.27.698v-14.79h-2.775v15.379l-8.837 1.782v-13.982h-2.774v14.587l-3.876.79c-.589.094-1.085.791-1.085 1.38v5.953-.186c0 .79.59 1.38 1.395 1.38h.295l3.27-.698v16.37l-3.875.806c-.589.093-1.085.79-1.085 1.38v5.751c0 .806.59 1.395 1.395 1.395h.295l3.27-.697v14.789h2.775v-15.378l8.837-1.783v13.983h2.774v-14.588l3.767-.697c.605-.093 1.101-.79 1.101-1.38v-5.86c0-.79-.604-1.38-1.395-1.38h-.202l-3.27.683v-16.37l3.766-.682m-15.378 19.532v-16.463l8.837-1.783v16.37l-8.837 1.876M1144.473 450.12c.605-.109 1.101-.806 1.101-1.396v-5.86c0-.79-.604-1.379-1.395-1.379h-.202l-3.27.698v-14.79h-2.775v15.379l-8.837 1.782v-13.982h-2.774v14.587l-3.876.79c-.589.094-1.085.791-1.085 1.38v5.953-.186c0 .79.59 1.38 1.395 1.38h.295l3.27-.698v16.37l-3.875.806c-.589.093-1.085.79-1.085 1.38v5.751c0 .806.59 1.395 1.395 1.395h.295l3.27-.697v14.789h2.775v-15.378l8.837-1.783v13.983h2.774v-14.588l3.767-.697c.605-.093 1.101-.79 1.101-1.38v-5.86c0-.79-.604-1.38-1.395-1.38h-.202l-3.27.683v-16.37l3.766-.682m-15.378 19.532V453.19l8.837-1.783v16.37l-8.837 1.876M2040.783 450.12c.605-.109 1.101-.806 1.101-1.396v-5.86c0-.79-.604-1.379-1.395-1.379h-.202l-3.27.698v-14.79h-2.775v15.379l-8.837 1.782v-13.982h-2.774v14.587l-3.876.79c-.589.094-1.085.791-1.085 1.38v5.953-.186c0 .79.59 1.38 1.395 1.38h.295l3.27-.698v16.37l-3.875.806c-.589.093-1.085.79-1.085 1.38v5.751c0 .806.59 1.395 1.395 1.395h.295l3.27-.697v14.789h2.775v-15.378l8.837-1.783v13.983h2.774v-14.588l3.767-.697c.605-.093 1.101-.79 1.101-1.38v-5.86c0-.79-.604-1.38-1.395-1.38h-.202l-3.27.683v-16.37l3.766-.682m-15.378 19.532V453.19l8.837-1.783v16.37l-8.837 1.876"/><path class="LedgerLine" stroke="#000" stroke-width="3.97" stroke-linejoin="bevel" d="M2039.39 2196.98h49.6M478.085 1072.49h54.365M1608.53 1072.49h49.6M1834.78 1072.49h49.6M2039.39 1072.49h49.6M2365.47 1072.49h54.36"/><path class="Stem" stroke="#000" stroke-width="2.73" stroke-linejoin="bevel" d="M979.979 2156.6v-83.63M1182.64 2144.2v-80.53M1422.02 2131.8v-77.44M1618.58 2125.91v74.17M1844.82 2113.51v77.27M2078.95 2193.81v-83.64M979.979 1569.55v-77.43M1182.64 1606.76v-83.64M1422.02 1606.76v-83.64M1535.05 1569.55v-77.43M1648.09 1569.55v-77.43M1874.33 1569.55v-77.43M2078.95 1606.76v-83.64M979.979 1044.51v-83.639M1182.64 1056.91v-83.638M1422.02 1044.51v-83.639M1648.09 1081.71v-83.634M1874.33 1069.31v-83.636M2078.95 1081.71v-83.634M2206.83 1056.91v-83.638M490.513 439.16v74.177M708.956 445.054v-77.436M950.471 426.759v77.276M1182.64 457.455v-80.536M1422.02 445.054v-77.436M1648.09 469.857V386.22M1874.33 482.258v-83.636M2078.95 457.455v-80.536"/><path class="Note" d="M505.322 2146.293c-13.688 0-18.556 6.945-18.556 13.394s4.868 13.394 18.556 13.394 18.447-6.945 18.447-13.394-4.759-13.394-18.447-13.394m-8.232 9.022c-.108-.403-.108-.79-.108-1.193 0-.79.201-1.581.604-2.279.683-.992 1.876-1.69 3.364-1.984 1.287-.295 1.985-.496 4.573-.496h.093c3.969 0 5.256 3.674 6.356 7.44l.295.993c.79 2.573 1.193 4.759 1.193 6.449 0 1.193-.201 2.278-.604 3.069-.59 1.1-1.581 1.798-3.271 2.186-.9.201-2.387.294-2.387.294-.496 0-.884.109-1.287.109-3.178 0-5.162-1.194-6.542-5.457-1.194-3.674-1.395-4.759-2.279-9.13M980.359 2151.703c-1.783-3.27-5.55-5.053-10.123-5.053-3.364 0-7.038.992-10.619 2.868-6.541 3.472-10.51 9.332-10.51 14.386 0 1.395.295 2.79.992 4.077 1.783 3.286 5.55 4.976 10.123 4.976 3.364 0 7.038-.9 10.619-2.775 6.542-3.488 10.51-9.348 10.51-14.417 0-1.38-.294-2.775-.992-4.062m-4.263 6.744c-1.69 1.69-5.07 3.767-8.635 5.767-3.565 1.984-7.146 3.472-9.518 3.968-.496.109-.992.202-1.488.202-1.597 0-2.79-.59-3.473-1.892a3.213 3.213 0 01-.496-1.69c0-1.084.683-2.387 1.783-3.472 1.69-1.69 4.96-3.767 8.526-5.751 3.581-1.984 7.147-3.472 9.534-3.969.496-.108.992-.201 1.488-.201 1.581 0 2.868.589 3.566 1.876.294.496.403 1.1.403 1.69 0 1.1-.605 2.278-1.69 3.472M1183.022 2139.303c-1.783-3.27-5.55-5.053-10.123-5.053-3.364 0-7.038.992-10.619 2.868-6.541 3.472-10.51 9.332-10.51 14.386 0 1.395.295 2.79.992 4.077 1.783 3.286 5.55 4.976 10.123 4.976 3.364 0 7.038-.9 10.619-2.775 6.542-3.488 10.51-9.348 10.51-14.417 0-1.38-.294-2.775-.992-4.062m-4.263 6.744c-1.69 1.69-5.07 3.767-8.635 5.767-3.565 1.984-7.146 3.472-9.518 3.968-.496.109-.992.202-1.488.202-1.597 0-2.79-.59-3.473-1.892a3.213 3.213 0 01-.496-1.69c0-1.084.683-2.387 1.783-3.472 1.69-1.69 4.96-3.767 8.526-5.751 3.581-1.984 7.147-3.472 9.534-3.969.496-.108.992-.201 1.488-.201 1.581 0 2.868.589 3.566 1.876.294.496.403 1.1.403 1.69 0 1.1-.605 2.278-1.69 3.472M1422.392 2126.893c-1.783-3.27-5.55-5.053-10.123-5.053-3.364 0-7.038.992-10.619 2.868-6.541 3.472-10.51 9.332-10.51 14.386 0 1.395.295 2.79.992 4.077 1.783 3.286 5.55 4.976 10.123 4.976 3.364 0 7.038-.9 10.619-2.775 6.542-3.488 10.51-9.348 10.51-14.417 0-1.38-.294-2.775-.992-4.062m-4.263 6.744c-1.69 1.69-5.07 3.767-8.635 5.767-3.565 1.984-7.146 3.472-9.518 3.968-.496.109-.992.202-1.488.202-1.597 0-2.79-.59-3.473-1.892a3.213 3.213 0 01-.496-1.69c0-1.084.683-2.387 1.783-3.472 1.69-1.69 4.96-3.767 8.526-5.751 3.581-1.984 7.147-3.472 9.534-3.969.496-.108.992-.201 1.488-.201 1.581 0 2.868.589 3.566 1.876.294.496.403 1.1.403 1.69 0 1.1-.605 2.278-1.69 3.472M1648.462 2114.493c-1.783-3.27-5.55-5.053-10.123-5.053-3.364 0-7.038.992-10.619 2.868-6.541 3.472-10.51 9.332-10.51 14.386 0 1.395.295 2.79.992 4.077 1.783 3.286 5.55 4.976 10.123 4.976 3.364 0 7.038-.9 10.619-2.775 6.542-3.488 10.51-9.348 10.51-14.417 0-1.38-.294-2.775-.992-4.062m-4.263 6.744c-1.69 1.69-5.07 3.767-8.635 5.767-3.565 1.984-7.146 3.472-9.518 3.968-.496.109-.992.202-1.488.202-1.597 0-2.79-.59-3.473-1.892a3.213 3.213 0 01-.496-1.69c0-1.084.683-2.387 1.783-3.472 1.69-1.69 4.96-3.767 8.526-5.751 3.581-1.984 7.147-3.472 9.534-3.969.496-.108.992-.201 1.488-.201 1.581 0 2.868.589 3.566 1.876.294.496.403 1.1.403 1.69 0 1.1-.605 2.278-1.69 3.472M1874.712 2102.093c-1.783-3.27-5.55-5.053-10.123-5.053-3.364 0-7.038.992-10.619 2.868-6.541 3.472-10.51 9.332-10.51 14.386 0 1.395.295 2.79.992 4.077 1.783 3.286 5.55 4.976 10.123 4.976 3.364 0 7.038-.9 10.619-2.775 6.542-3.488 10.51-9.348 10.51-14.417 0-1.38-.294-2.775-.992-4.062m-4.263 6.744c-1.69 1.69-5.07 3.767-8.635 5.767-3.565 1.984-7.146 3.472-9.518 3.968-.496.109-.992.202-1.488.202-1.597 0-2.79-.59-3.473-1.892a3.213 3.213 0 01-.496-1.69c0-1.084.683-2.387 1.783-3.472 1.69-1.69 4.96-3.767 8.526-5.751 3.581-1.984 7.147-3.472 9.534-3.969.496-.108.992-.201 1.488-.201 1.581 0 2.868.589 3.566 1.876.294.496.403 1.1.403 1.69 0 1.1-.605 2.278-1.69 3.472M2079.322 2188.903c-1.783-3.27-5.55-5.053-10.123-5.053-3.364 0-7.038.992-10.619 2.868-6.541 3.472-10.51 9.332-10.51 14.386 0 1.395.295 2.79.992 4.077 1.783 3.286 5.55 4.976 10.123 4.976 3.364 0 7.038-.9 10.619-2.775 6.542-3.488 10.51-9.348 10.51-14.417 0-1.38-.294-2.775-.992-4.062m-4.263 6.744c-1.69 1.69-5.07 3.767-8.635 5.767-3.565 1.984-7.146 3.472-9.518 3.968-.496.109-.992.202-1.488.202-1.597 0-2.79-.59-3.473-1.892a3.213 3.213 0 01-.496-1.69c0-1.084.683-2.387 1.783-3.472 1.69-1.69 4.96-3.767 8.526-5.751 3.581-1.984 7.147-3.472 9.534-3.969.496-.108.992-.201 1.488-.201 1.581 0 2.868.589 3.566 1.876.294.496.403 1.1.403 1.69 0 1.1-.605 2.278-1.69 3.472M2392.706 2146.293c-13.688 0-18.556 6.945-18.556 13.394s4.868 13.394 18.556 13.394 18.447-6.945 18.447-13.394-4.759-13.394-18.447-13.394m-8.232 9.022c-.108-.403-.108-.79-.108-1.193 0-.79.201-1.581.604-2.279.683-.992 1.876-1.69 3.364-1.984 1.287-.295 1.985-.496 4.573-.496h.093c3.969 0 5.256 3.674 6.356 7.44l.295.993c.79 2.573 1.193 4.759 1.193 6.449 0 1.193-.201 2.278-.604 3.069-.59 1.1-1.581 1.798-3.271 2.186-.9.201-2.387.294-2.387.294-.496 0-.884.109-1.287.109-3.178 0-5.162-1.194-6.542-5.457-1.194-3.674-1.395-4.759-2.279-9.13M505.322 1596.443c-13.688 0-18.556 6.945-18.556 13.394s4.868 13.394 18.556 13.394 18.447-6.945 18.447-13.394-4.759-13.394-18.447-13.394m-8.232 9.022c-.108-.403-.108-.79-.108-1.193 0-.79.201-1.581.604-2.279.683-.992 1.876-1.69 3.364-1.984 1.287-.295 1.985-.496 4.573-.496h.093c3.969 0 5.256 3.674 6.356 7.44l.295.993c.79 2.573 1.193 4.759 1.193 6.449 0 1.193-.201 2.278-.604 3.069-.59 1.1-1.581 1.798-3.271 2.186-.9.201-2.387.294-2.387.294-.496 0-.884.109-1.287.109-3.178 0-5.162-1.194-6.542-5.457-1.194-3.674-1.395-4.759-2.279-9.13M980.359 1564.653c-1.783-3.27-5.55-5.053-10.123-5.053-3.364 0-7.038.992-10.619 2.868-6.541 3.472-10.51 9.332-10.51 14.386 0 1.395.295 2.79.992 4.077 1.783 3.286 5.55 4.976 10.123 4.976 3.364 0 7.038-.9 10.619-2.775 6.542-3.488 10.51-9.348 10.51-14.417 0-1.38-.294-2.775-.992-4.062m-4.263 6.744c-1.69 1.69-5.07 3.767-8.635 5.767-3.565 1.984-7.146 3.472-9.518 3.968-.496.109-.992.202-1.488.202-1.597 0-2.79-.59-3.473-1.892a3.213 3.213 0 01-.496-1.69c0-1.084.683-2.387 1.783-3.472 1.69-1.69 4.96-3.767 8.526-5.751 3.581-1.984 7.147-3.472 9.534-3.969.496-.108.992-.201 1.488-.201 1.581 0 2.868.589 3.566 1.876.294.496.403 1.1.403 1.69 0 1.1-.605 2.278-1.69 3.472M1183.022 1601.853c-1.783-3.27-5.55-5.053-10.123-5.053-3.364 0-7.038.992-10.619 2.868-6.541 3.472-10.51 9.332-10.51 14.386 0 1.395.295 2.79.992 4.077 1.783 3.286 5.55 4.976 10.123 4.976 3.364 0 7.038-.9 10.619-2.775 6.542-3.488 10.51-9.348 10.51-14.417 0-1.38-.294-2.775-.992-4.062m-4.263 6.744c-1.69 1.69-5.07 3.767-8.635 5.767-3.565 1.984-7.146 3.472-9.518 3.968-.496.109-.992.202-1.488.202-1.597 0-2.79-.59-3.473-1.892a3.213 3.213 0 01-.496-1.69c0-1.084.683-2.387 1.783-3.472 1.69-1.69 4.96-3.767 8.526-5.751 3.581-1.984 7.147-3.472 9.534-3.969.496-.108.992-.201 1.488-.201 1.581 0 2.868.589 3.566 1.876.294.496.403 1.1.403 1.69 0 1.1-.605 2.278-1.69 3.472M1422.392 1601.9c-1.783-3.286-5.55-5.07-10.123-5.07-3.364 0-7.038.993-10.619 2.884-6.541 3.473-10.51 9.317-10.51 14.386 0 1.38.295 2.775.992 4.062 1.783 3.27 5.55 4.96 10.123 4.96 3.364 0 7.038-.883 10.619-2.775 6.542-3.472 10.51-9.332 10.51-14.386 0-1.395-.294-2.774-.992-4.061M1535.432 1564.7c-1.783-3.286-5.55-5.07-10.123-5.07-3.364 0-7.038.993-10.619 2.884-6.541 3.473-10.51 9.317-10.51 14.386 0 1.38.295 2.775.992 4.062 1.783 3.27 5.55 4.96 10.123 4.96 3.364 0 7.038-.883 10.619-2.775 6.542-3.472 10.51-9.332 10.51-14.386 0-1.395-.294-2.774-.992-4.061M1648.462 1564.653c-1.783-3.27-5.55-5.053-10.123-5.053-3.364 0-7.038.992-10.619 2.868-6.541 3.472-10.51 9.332-10.51 14.386 0 1.395.295 2.79.992 4.077 1.783 3.286 5.55 4.976 10.123 4.976 3.364 0 7.038-.9 10.619-2.775 6.542-3.488 10.51-9.348 10.51-14.417 0-1.38-.294-2.775-.992-4.062m-4.263 6.744c-1.69 1.69-5.07 3.767-8.635 5.767-3.565 1.984-7.146 3.472-9.518 3.968-.496.109-.992.202-1.488.202-1.597 0-2.79-.59-3.473-1.892a3.213 3.213 0 01-.496-1.69c0-1.084.683-2.387 1.783-3.472 1.69-1.69 4.96-3.767 8.526-5.751 3.581-1.984 7.147-3.472 9.534-3.969.496-.108.992-.201 1.488-.201 1.581 0 2.868.589 3.566 1.876.294.496.403 1.1.403 1.69 0 1.1-.605 2.278-1.69 3.472M1874.712 1564.653c-1.783-3.27-5.55-5.053-10.123-5.053-3.364 0-7.038.992-10.619 2.868-6.541 3.472-10.51 9.332-10.51 14.386 0 1.395.295 2.79.992 4.077 1.783 3.286 5.55 4.976 10.123 4.976 3.364 0 7.038-.9 10.619-2.775 6.542-3.488 10.51-9.348 10.51-14.417 0-1.38-.294-2.775-.992-4.062m-4.263 6.744c-1.69 1.69-5.07 3.767-8.635 5.767-3.565 1.984-7.146 3.472-9.518 3.968-.496.109-.992.202-1.488.202-1.597 0-2.79-.59-3.473-1.892a3.213 3.213 0 01-.496-1.69c0-1.084.683-2.387 1.783-3.472 1.69-1.69 4.96-3.767 8.526-5.751 3.581-1.984 7.147-3.472 9.534-3.969.496-.108.992-.201 1.488-.201 1.581 0 2.868.589 3.566 1.876.294.496.403 1.1.403 1.69 0 1.1-.605 2.278-1.69 3.472M2079.322 1601.853c-1.783-3.27-5.55-5.053-10.123-5.053-3.364 0-7.038.992-10.619 2.868-6.541 3.472-10.51 9.332-10.51 14.386 0 1.395.295 2.79.992 4.077 1.783 3.286 5.55 4.976 10.123 4.976 3.364 0 7.038-.9 10.619-2.775 6.542-3.488 10.51-9.348 10.51-14.417 0-1.38-.294-2.775-.992-4.062m-4.263 6.744c-1.69 1.69-5.07 3.767-8.635 5.767-3.565 1.984-7.146 3.472-9.518 3.968-.496.109-.992.202-1.488.202-1.597 0-2.79-.59-3.473-1.892a3.213 3.213 0 01-.496-1.69c0-1.084.683-2.387 1.783-3.472 1.69-1.69 4.96-3.767 8.526-5.751 3.581-1.984 7.147-3.472 9.534-3.969.496-.108.992-.201 1.488-.201 1.581 0 2.868.589 3.566 1.876.294.496.403 1.1.403 1.69 0 1.1-.605 2.278-1.69 3.472M2392.706 1584.043c-13.688 0-18.556 6.945-18.556 13.394s4.868 13.394 18.556 13.394 18.447-6.945 18.447-13.394-4.759-13.394-18.447-13.394m-8.232 9.022c-.108-.403-.108-.79-.108-1.193 0-.79.201-1.581.604-2.279.683-.992 1.876-1.69 3.364-1.984 1.287-.295 1.985-.496 4.573-.496h.093c3.969 0 5.256 3.674 6.356 7.44l.295.993c.79 2.573 1.193 4.759 1.193 6.449 0 1.193-.201 2.278-.604 3.069-.59 1.1-1.581 1.798-3.271 2.186-.9.201-2.387.294-2.387.294-.496 0-.884.109-1.287.109-3.178 0-5.162-1.194-6.542-5.457-1.194-3.674-1.395-4.759-2.279-9.13M505.322 1059.003c-13.688 0-18.556 6.945-18.556 13.394s4.868 13.394 18.556 13.394 18.447-6.945 18.447-13.394-4.759-13.394-18.447-13.394m-8.232 9.022c-.108-.403-.108-.79-.108-1.193 0-.79.201-1.581.604-2.279.683-.992 1.876-1.69 3.364-1.984 1.287-.295 1.985-.496 4.573-.496h.093c3.969 0 5.256 3.674 6.356 7.44l.295.993c.79 2.573 1.193 4.759 1.193 6.449 0 1.193-.201 2.278-.604 3.069-.59 1.1-1.581 1.798-3.271 2.186-.9.201-2.387.294-2.387.294-.496 0-.884.109-1.287.109-3.178 0-5.162-1.194-6.542-5.457-1.194-3.674-1.395-4.759-2.279-9.13M980.359 1039.603c-1.783-3.27-5.55-5.053-10.123-5.053-3.364 0-7.038.992-10.619 2.868-6.541 3.472-10.51 9.332-10.51 14.386 0 1.395.295 2.79.992 4.077 1.783 3.286 5.55 4.976 10.123 4.976 3.364 0 7.038-.9 10.619-2.775 6.542-3.488 10.51-9.348 10.51-14.417 0-1.38-.294-2.775-.992-4.062m-4.263 6.744c-1.69 1.69-5.07 3.767-8.635 5.767-3.565 1.984-7.146 3.472-9.518 3.968-.496.109-.992.202-1.488.202-1.597 0-2.79-.59-3.473-1.892a3.213 3.213 0 01-.496-1.69c0-1.084.683-2.387 1.783-3.472 1.69-1.69 4.96-3.767 8.526-5.751 3.581-1.984 7.147-3.472 9.534-3.969.496-.108.992-.201 1.488-.201 1.581 0 2.868.589 3.566 1.876.294.496.403 1.1.403 1.69 0 1.1-.605 2.278-1.69 3.472M1183.022 1052.003c-1.783-3.27-5.55-5.053-10.123-5.053-3.364 0-7.038.992-10.619 2.868-6.541 3.472-10.51 9.332-10.51 14.386 0 1.395.295 2.79.992 4.077 1.783 3.286 5.55 4.976 10.123 4.976 3.364 0 7.038-.9 10.619-2.775 6.542-3.488 10.51-9.348 10.51-14.417 0-1.38-.294-2.775-.992-4.062m-4.263 6.744c-1.69 1.69-5.07 3.767-8.635 5.767-3.565 1.984-7.146 3.472-9.518 3.968-.496.109-.992.202-1.488.202-1.597 0-2.79-.59-3.473-1.892a3.213 3.213 0 01-.496-1.69c0-1.084.683-2.387 1.783-3.472 1.69-1.69 4.96-3.767 8.526-5.751 3.581-1.984 7.147-3.472 9.534-3.969.496-.108.992-.201 1.488-.201 1.581 0 2.868.589 3.566 1.876.294.496.403 1.1.403 1.69 0 1.1-.605 2.278-1.69 3.472M1422.392 1039.603c-1.783-3.27-5.55-5.053-10.123-5.053-3.364 0-7.038.992-10.619 2.868-6.541 3.472-10.51 9.332-10.51 14.386 0 1.395.295 2.79.992 4.077 1.783 3.286 5.55 4.976 10.123 4.976 3.364 0 7.038-.9 10.619-2.775 6.542-3.488 10.51-9.348 10.51-14.417 0-1.38-.294-2.775-.992-4.062m-4.263 6.744c-1.69 1.69-5.07 3.767-8.635 5.767-3.565 1.984-7.146 3.472-9.518 3.968-.496.109-.992.202-1.488.202-1.597 0-2.79-.59-3.473-1.892a3.213 3.213 0 01-.496-1.69c0-1.084.683-2.387 1.783-3.472 1.69-1.69 4.96-3.767 8.526-5.751 3.581-1.984 7.147-3.472 9.534-3.969.496-.108.992-.201 1.488-.201 1.581 0 2.868.589 3.566 1.876.294.496.403 1.1.403 1.69 0 1.1-.605 2.278-1.69 3.472M1648.462 1076.813c-1.783-3.27-5.55-5.053-10.123-5.053-3.364 0-7.038.992-10.619 2.868-6.541 3.472-10.51 9.332-10.51 14.386 0 1.395.295 2.79.992 4.077 1.783 3.286 5.55 4.976 10.123 4.976 3.364 0 7.038-.9 10.619-2.775 6.542-3.488 10.51-9.348 10.51-14.417 0-1.38-.294-2.775-.992-4.062m-4.263 6.744c-1.69 1.69-5.07 3.767-8.635 5.767-3.565 1.984-7.146 3.472-9.518 3.968-.496.109-.992.202-1.488.202-1.597 0-2.79-.59-3.473-1.892a3.213 3.213 0 01-.496-1.69c0-1.084.683-2.387 1.783-3.472 1.69-1.69 4.96-3.767 8.526-5.751 3.581-1.984 7.147-3.472 9.534-3.969.496-.108.992-.201 1.488-.201 1.581 0 2.868.589 3.566 1.876.294.496.403 1.1.403 1.69 0 1.1-.605 2.278-1.69 3.472M1874.712 1064.413c-1.783-3.27-5.55-5.053-10.123-5.053-3.364 0-7.038.992-10.619 2.868-6.541 3.472-10.51 9.332-10.51 14.386 0 1.395.295 2.79.992 4.077 1.783 3.286 5.55 4.976 10.123 4.976 3.364 0 7.038-.9 10.619-2.775 6.542-3.488 10.51-9.348 10.51-14.417 0-1.38-.294-2.775-.992-4.062m-4.263 6.744c-1.69 1.69-5.07 3.767-8.635 5.767-3.565 1.984-7.146 3.472-9.518 3.968-.496.109-.992.202-1.488.202-1.597 0-2.79-.59-3.473-1.892a3.213 3.213 0 01-.496-1.69c0-1.084.683-2.387 1.783-3.472 1.69-1.69 4.96-3.767 8.526-5.751 3.581-1.984 7.147-3.472 9.534-3.969.496-.108.992-.201 1.488-.201 1.581 0 2.868.589 3.566 1.876.294.496.403 1.1.403 1.69 0 1.1-.605 2.278-1.69 3.472M2079.322 1076.86c-1.783-3.286-5.55-5.07-10.123-5.07-3.364 0-7.038.993-10.619 2.884-6.541 3.473-10.51 9.317-10.51 14.386 0 1.38.295 2.775.992 4.062 1.783 3.27 5.55 4.96 10.123 4.96 3.364 0 7.038-.883 10.619-2.775 6.542-3.472 10.51-9.332 10.51-14.386 0-1.395-.294-2.774-.992-4.061M2207.212 1052.05c-1.783-3.286-5.55-5.07-10.123-5.07-3.364 0-7.038.993-10.619 2.884-6.541 3.473-10.51 9.317-10.51 14.386 0 1.38.295 2.775.992 4.062 1.783 3.27 5.55 4.96 10.123 4.96 3.364 0 7.038-.883 10.619-2.775 6.542-3.472 10.51-9.332 10.51-14.386 0-1.395-.294-2.774-.992-4.061M2392.706 1059.003c-13.688 0-18.556 6.945-18.556 13.394s4.868 13.394 18.556 13.394 18.447-6.945 18.447-13.394-4.759-13.394-18.447-13.394m-8.232 9.022c-.108-.403-.108-.79-.108-1.193 0-.79.201-1.581.604-2.279.683-.992 1.876-1.69 3.364-1.984 1.287-.295 1.985-.496 4.573-.496h.093c3.969 0 5.256 3.674 6.356 7.44l.295.993c.79 2.573 1.193 4.759 1.193 6.449 0 1.193-.201 2.278-.604 3.069-.59 1.1-1.581 1.798-3.271 2.186-.9.201-2.387.294-2.387.294-.496 0-.884.109-1.287.109-3.178 0-5.162-1.194-6.542-5.457-1.194-3.674-1.395-4.759-2.279-9.13M520.401 427.75c-1.783-3.27-5.55-5.053-10.123-5.053-3.364 0-7.038.992-10.619 2.868-6.541 3.472-10.51 9.332-10.51 14.386 0 1.395.295 2.79.992 4.077 1.783 3.286 5.55 4.976 10.123 4.976 3.364 0 7.038-.9 10.619-2.775 6.542-3.488 10.51-9.348 10.51-14.417 0-1.38-.294-2.775-.992-4.062m-4.263 6.744c-1.69 1.69-5.07 3.767-8.635 5.767-3.565 1.984-7.146 3.472-9.518 3.968-.496.109-.992.202-1.488.202-1.597 0-2.79-.59-3.473-1.892a3.213 3.213 0 01-.496-1.69c0-1.084.683-2.387 1.783-3.472 1.69-1.69 4.96-3.767 8.526-5.751 3.581-1.984 7.147-3.472 9.534-3.969.496-.108.992-.201 1.488-.201 1.581 0 2.868.589 3.566 1.876.294.496.403 1.1.403 1.69 0 1.1-.605 2.278-1.69 3.472M709.336 440.151c-1.783-3.27-5.55-5.053-10.123-5.053-3.364 0-7.038.992-10.619 2.868-6.541 3.472-10.51 9.332-10.51 14.386 0 1.395.295 2.79.992 4.077 1.783 3.286 5.55 4.976 10.123 4.976 3.364 0 7.038-.9 10.619-2.775 6.542-3.488 10.51-9.348 10.51-14.417 0-1.38-.294-2.775-.992-4.062m-4.263 6.744c-1.69 1.69-5.07 3.767-8.635 5.767-3.565 1.984-7.146 3.472-9.518 3.968-.496.109-.992.202-1.488.202-1.597 0-2.79-.59-3.473-1.892a3.213 3.213 0 01-.496-1.69c0-1.084.683-2.387 1.783-3.472 1.69-1.69 4.96-3.767 8.526-5.751 3.581-1.984 7.147-3.472 9.534-3.969.496-.108.992-.201 1.488-.201 1.581 0 2.868.589 3.566 1.876.294.496.403 1.1.403 1.69 0 1.1-.605 2.278-1.69 3.472M980.359 415.348c-1.783-3.27-5.55-5.053-10.123-5.053-3.364 0-7.038.992-10.619 2.868-6.541 3.472-10.51 9.332-10.51 14.386 0 1.395.295 2.79.992 4.077 1.783 3.286 5.55 4.976 10.123 4.976 3.364 0 7.038-.9 10.619-2.775 6.542-3.488 10.51-9.348 10.51-14.417 0-1.38-.294-2.775-.992-4.062m-4.263 6.744c-1.69 1.69-5.07 3.767-8.635 5.767-3.565 1.984-7.146 3.472-9.518 3.968-.496.109-.992.202-1.488.202-1.597 0-2.79-.59-3.473-1.892a3.213 3.213 0 01-.496-1.69c0-1.084.683-2.387 1.783-3.472 1.69-1.69 4.96-3.767 8.526-5.751 3.581-1.984 7.147-3.472 9.534-3.969.496-.108.992-.201 1.488-.201 1.581 0 2.868.589 3.566 1.876.294.496.403 1.1.403 1.69 0 1.1-.605 2.278-1.69 3.472M1183.022 452.553c-1.783-3.27-5.55-5.053-10.123-5.053-3.364 0-7.038.992-10.619 2.868-6.541 3.472-10.51 9.332-10.51 14.386 0 1.395.295 2.79.992 4.077 1.783 3.286 5.55 4.976 10.123 4.976 3.364 0 7.038-.9 10.619-2.775 6.542-3.488 10.51-9.348 10.51-14.417 0-1.38-.294-2.775-.992-4.062m-4.263 6.744c-1.69 1.69-5.07 3.767-8.635 5.767-3.565 1.984-7.146 3.472-9.518 3.968-.496.109-.992.202-1.488.202-1.597 0-2.79-.59-3.473-1.892a3.213 3.213 0 01-.496-1.69c0-1.084.683-2.387 1.783-3.472 1.69-1.69 4.96-3.767 8.526-5.751 3.581-1.984 7.147-3.472 9.534-3.969.496-.108.992-.201 1.488-.201 1.581 0 2.868.589 3.566 1.876.294.496.403 1.1.403 1.69 0 1.1-.605 2.278-1.69 3.472M1422.392 440.151c-1.783-3.27-5.55-5.053-10.123-5.053-3.364 0-7.038.992-10.619 2.868-6.541 3.472-10.51 9.332-10.51 14.386 0 1.395.295 2.79.992 4.077 1.783 3.286 5.55 4.976 10.123 4.976 3.364 0 7.038-.9 10.619-2.775 6.542-3.488 10.51-9.348 10.51-14.417 0-1.38-.294-2.775-.992-4.062m-4.263 6.744c-1.69 1.69-5.07 3.767-8.635 5.767-3.565 1.984-7.146 3.472-9.518 3.968-.496.109-.992.202-1.488.202-1.597 0-2.79-.59-3.473-1.892a3.213 3.213 0 01-.496-1.69c0-1.084.683-2.387 1.783-3.472 1.69-1.69 4.96-3.767 8.526-5.751 3.581-1.984 7.147-3.472 9.534-3.969.496-.108.992-.201 1.488-.201 1.581 0 2.868.589 3.566 1.876.294.496.403 1.1.403 1.69 0 1.1-.605 2.278-1.69 3.472M1648.462 464.954c-1.783-3.27-5.55-5.053-10.123-5.053-3.364 0-7.038.992-10.619 2.868-6.541 3.472-10.51 9.332-10.51 14.386 0 1.395.295 2.79.992 4.077 1.783 3.286 5.55 4.976 10.123 4.976 3.364 0 7.038-.9 10.619-2.775 6.542-3.488 10.51-9.348 10.51-14.417 0-1.38-.294-2.775-.992-4.062m-4.263 6.744c-1.69 1.69-5.07 3.767-8.635 5.767-3.565 1.984-7.146 3.472-9.518 3.968-.496.109-.992.202-1.488.202-1.597 0-2.79-.59-3.473-1.892a3.213 3.213 0 01-.496-1.69c0-1.084.683-2.387 1.783-3.472 1.69-1.69 4.96-3.767 8.526-5.751 3.581-1.984 7.147-3.472 9.534-3.969.496-.108.992-.201 1.488-.201 1.581 0 2.868.589 3.566 1.876.294.496.403 1.1.403 1.69 0 1.1-.605 2.278-1.69 3.472M1874.712 477.356c-1.783-3.27-5.55-5.053-10.123-5.053-3.364 0-7.038.992-10.619 2.868-6.541 3.472-10.51 9.332-10.51 14.386 0 1.395.295 2.79.992 4.077 1.783 3.286 5.55 4.976 10.123 4.976 3.364 0 7.038-.9 10.619-2.775 6.542-3.488 10.51-9.348 10.51-14.417 0-1.38-.294-2.775-.992-4.062m-4.263 6.744c-1.69 1.69-5.07 3.767-8.635 5.767-3.565 1.984-7.146 3.472-9.518 3.968-.496.109-.992.202-1.488.202-1.597 0-2.79-.59-3.473-1.892a3.213 3.213 0 01-.496-1.69c0-1.084.683-2.387 1.783-3.472 1.69-1.69 4.96-3.767 8.526-5.751 3.581-1.984 7.147-3.472 9.534-3.969.496-.108.992-.201 1.488-.201 1.581 0 2.868.589 3.566 1.876.294.496.403 1.1.403 1.69 0 1.1-.605 2.278-1.69 3.472M2079.322 452.553c-1.783-3.27-5.55-5.053-10.123-5.053-3.364 0-7.038.992-10.619 2.868-6.541 3.472-10.51 9.332-10.51 14.386 0 1.395.295 2.79.992 4.077 1.783 3.286 5.55 4.976 10.123 4.976 3.364 0 7.038-.9 10.619-2.775 6.542-3.488 10.51-9.348 10.51-14.417 0-1.38-.294-2.775-.992-4.062m-4.263 6.744c-1.69 1.69-5.07 3.767-8.635 5.767-3.565 1.984-7.146 3.472-9.518 3.968-.496.109-.992.202-1.488.202-1.597 0-2.79-.59-3.473-1.892a3.213 3.213 0 01-.496-1.69c0-1.084.683-2.387 1.783-3.472 1.69-1.69 4.96-3.767 8.526-5.751 3.581-1.984 7.147-3.472 9.534-3.969.496-.108.992-.201 1.488-.201 1.581 0 2.868.589 3.566 1.876.294.496.403 1.1.403 1.69 0 1.1-.605 2.278-1.69 3.472M2392.706 434.741c-13.688 0-18.556 6.945-18.556 13.394s4.868 13.394 18.556 13.394 18.447-6.945 18.447-13.394-4.759-13.394-18.447-13.394m-8.232 9.022c-.108-.403-.108-.79-.108-1.193 0-.79.201-1.581.604-2.279.683-.992 1.876-1.69 3.364-1.984 1.287-.295 1.985-.496 4.573-.496h.093c3.969 0 5.256 3.674 6.356 7.44l.295.993c.79 2.573 1.193 4.759 1.193 6.449 0 1.193-.201 2.278-.604 3.069-.59 1.1-1.581 1.798-3.271 2.186-.9.201-2.387.294-2.387.294-.496 0-.884.109-1.287.109-3.178 0-5.162-1.194-6.542-5.457-1.194-3.674-1.395-4.759-2.279-9.13"/><path class="Clef" d="M347.395 2072.874c-7.55 0-13.595 4.356-13.703 4.356-5.752 4.263-8.03 9.332-8.93 12.805-.496 1.782-.682 3.565-.682 5.255 0 2.387.388 4.557 1.287 6.449 1.194 2.681 3.472 4.557 6.449 5.55 1.193.402 2.48.604 3.767.604 2.185 0 4.464-.605 6.356-1.69 3.069-1.69 4.96-5.255 4.96-9.13 0-3.473-1.798-6.65-4.774-8.527-2.078-1.395-4.062-1.782-5.752-1.782-1.193 0-2.278.186-3.178.496-.992.387-2.666 1.38-3.472 2.077.31-1.891 1.488-4.76 2.589-6.356 1.085-1.581 3.27-3.565 4.96-4.464 2.48-1.38 5.659-1.985 9.131-1.985 10.123 0 15.084 8.139 15.084 24.803 0 9.24-3.473 18.06-6.45 23.92-3.286 6.542-7.642 12.805-11.517 16.277-10.325 9.425-20.044 13.89-20.137 13.89 0 0-1.489.883-1.101 2.372.31.992 1.194 1.193 1.798 1.193.093 0 .388-.093.496-.093.093 0 11.41-4.666 20.432-11.72 5.07-3.658 9.627-7.626 13.595-11.905a73.567 73.567 0 009.13-12.2c4.357-7.44 6.837-15.176 6.837-21.827 0-8.231-2.17-15.083-6.247-19.935-4.666-5.565-11.704-8.433-20.928-8.433m31.144 12.587c0 2.79 2.185 4.961 4.774 4.961 2.574 0 4.76-2.17 4.76-4.96 0-2.775-2.186-5.054-4.76-5.054-2.589 0-4.774 2.279-4.774 5.053m0 24.51c0 2.774 2.185 5.068 4.774 5.068 2.574 0 4.76-2.294 4.76-5.069s-2.186-5.054-4.76-5.054c-2.589 0-4.774 2.28-4.774 5.054M385.065 1579.255c-1.225-5.38-3.845-9.177-4.62-10.2-3.162-4.248-7.146-7.07-11.797-8.418-3.084-.868-6.06-.992-8.464-.806a3475.343 3475.343 0 01-2.914-17.207c5.395-6.108 8.991-11.875 11.239-16.138 3.441-6.526 4.588-11.068 4.635-11.27 1.705-5.178 2.062-12.805.977-20.959-1.008-7.487-3.085-14.152-5.41-17.377-1.024-1.41-2.062-2.14-3.101-2.14-1.21 0-3.69 1.225-6.557 3.984-2.28 2.17-5.535 6.03-8.077 11.999-2.976 7.007-3.178 16.417-2.837 23.098.388 7.208 1.489 12.851 1.489 12.898.03.093.279 1.58.728 4.139-.232.217-.465.45-.713.682a210.305 210.305 0 00-3.581 3.488c-.853.852-1.798 1.767-2.79 2.728-8.387 8.076-21.083 20.308-21.083 39.313 0 4.666.9 9.053 2.666 13.037 1.566 3.566 3.845 6.821 6.76 9.673 7.673 7.488 18.183 10.681 25.174 10.51 2.93-.061 5.55-.294 7.922-.743 1.814 9.533 2.945 16.51 2.976 21.81.047 6.45-1.596 10.403-5.456 13.147-2.419 1.72-5.21 2.666-8.278 2.805-2.574.124-4.822-.34-6.232-.744h-.016s-.279-.093-.294-.279c-.016-.186.34-.232.34-.232h.032c1.907-.434 5.441-1.659 7.782-4.93 1.782-2.511 2.65-7.1.821-11.006-1.1-2.372-3.58-5.302-9.161-5.751-2.48-.187-4.728.31-6.713 1.503-1.798 1.07-3.286 2.698-4.325 4.682-2.433 4.666-1.984 10.355 1.116 14.169 2.946 3.596 7.519 5.89 12.914 6.464.852.093 1.69.124 2.526.124.713 0 1.411-.031 2.109-.093-1.194.325-2.264.884-3.132 1.628-1.472 1.286-2.31 3.1-2.31 5.115 0 1.845.62 3.21 2.093 4.589-1.131.45-1.984.93-2.728 1.504-1.535 1.147-2.434 2.867-2.434 4.588 0 3.225 2.93 5.395 7.317 5.395 5.364 0 9.115-2.977 9.115-7.224 0-2.217-.992-4.14-2.806-5.488 2.915-1.193 4.263-2.868 4.263-5.224a4.787 4.787 0 00-1.875-3.844c-1.194-.946-2.837-1.442-4.76-1.442h-.17c2.744-.527 5.364-1.52 7.642-2.93 3.628-2.558 5.72-6.495 6.403-12.092.558-4.604.17-10.463-1.225-18.462-.356-2.078-.883-5.085-1.55-8.821 5.72-1.907 9.844-5.441 13.58-11.239 3.27-5.705 4.2-11.75 2.79-18.013m-30.74 92.702c-2.186 0-3.628-1.411-3.628-3.504 0-1.876.915-3.488 2.573-4.496.357.187.434.233.776.404 1.178.589 1.178.589 1.426.744h.015c1.892 1.085 2.667 2.108 2.667 3.519-.016 1.89-1.644 3.333-3.83 3.333m5.876-15.797c0 1.628-.574 2.697-2.108 3.876-1.442-.745-1.814-.962-2.186-1.179l-.109-.062c-1.534-.93-2-1.612-2-2.867 0-1.783 1.365-3.039 3.302-3.039 1.97.016 3.1 1.21 3.1 3.271m-5.115-154.23c1.767-5.688 4.48-8.913 6.449-10.633 1.736-1.504 3.38-2.202 4.294-2.202.14 0 .248.016.357.047.45.14.976.697 1.441 1.565 2.295 4.248 1.566 10.914.233 15.316-1.612 5.364-4.511 10.93-13.239 20.479-.17-1.101-.325-2.155-.465-3.116-1.256-8.232-.946-15.44.93-21.455m-3.968 103.32c-4.604-1.209-9.007-3.689-12.743-7.161-1.287-1.225-3.147-3.38-4.604-6.744-1.349-3.131-2-6.542-1.953-10.091.062-4.651 1.364-9.441 3.86-14.185 2.899-5.55 7.41-11.037 13.424-16.323a89.217 89.217 0 004.077-3.814c.76 4.232 1.582 8.883 2.465 13.735-3.829 1.256-8.541 4.387-11.626 9.983-3.504 6.526-3.364 11.999-2.636 15.456.93 4.418 3.442 8.154 6.868 10.215.93.559 5.022 2.682 6.852 2.093.372-.108.635-.325.775-.65.511-1.164-.512-1.8-2.062-2.76a28.348 28.348 0 01-1.984-1.302c-3.287-2.465-4.728-6.883-3.659-11.24.574-2.371 1.845-4.51 3.659-6.2 1.658-1.535 3.69-2.636 6.046-3.271 2.03 11.161 4.077 22.214 5.704 30.508.124.682.264 1.349.388 2.015-4.356.93-8.666.837-12.851-.263m25.547-10.139c-1.163 3.163-3.612 7.193-8.697 9.24-.062-.42-.155-.838-.232-1.272-1.535-8.68-3.442-19.579-5.395-30.756 10.278-.465 14.51 6.914 15.394 11.704.465 2.512.465 6.914-1.07 11.084M385.05 1017.005c-1.225-5.38-3.845-9.177-4.62-10.2-3.163-4.248-7.147-7.07-11.797-8.418-3.085-.868-6.061-.992-8.464-.806a2314.44 2314.44 0 01-2.93-17.207c5.41-6.124 9.007-11.875 11.27-16.138 3.441-6.526 4.573-11.068 4.635-11.27 1.705-5.178 2.062-12.82.961-20.959-.992-7.487-3.07-14.152-5.41-17.377-1.008-1.41-2.062-2.14-3.085-2.14-1.21 0-3.705 1.225-6.573 3.984-2.279 2.17-5.519 6.03-8.06 11.999-2.977 7.007-3.194 16.417-2.838 23.082.372 7.224 1.473 12.867 1.489 12.914.015.093.279 1.58.713 4.123-.217.233-.465.45-.713.698-1.024.992-2.202 2.108-3.581 3.488-.853.852-1.799 1.751-2.79 2.713-8.372 8.076-21.068 20.307-21.068 39.312 0 4.667.9 9.054 2.666 13.038 1.566 3.565 3.845 6.82 6.76 9.673 7.673 7.503 18.183 10.68 25.174 10.526 2.93-.078 5.55-.31 7.922-.76 1.814 9.534 2.945 16.51 2.976 21.811.047 6.465-1.596 10.418-5.456 13.162-2.419 1.72-5.21 2.666-8.278 2.805-2.574.124-4.822-.34-6.232-.744h-.016s-.279-.093-.294-.279c-.016-.186.34-.232.34-.232h.032c1.907-.434 5.441-1.659 7.782-4.93 1.782-2.511 2.65-7.1.821-11.006-1.1-2.372-3.58-5.302-9.161-5.751-2.48-.202-4.728.31-6.713 1.503-1.798 1.07-3.286 2.698-4.325 4.682-2.433 4.666-1.984 10.355 1.116 14.169 2.946 3.596 7.519 5.89 12.914 6.464.852.093 1.69.124 2.526.124 4.403 0 8.759-1.194 12.309-3.38 3.627-2.557 5.736-6.51 6.402-12.091.558-4.604.17-10.48-1.209-18.494-.356-2.077-.899-5.085-1.55-8.805 5.705-1.907 9.828-5.457 13.564-11.27 3.271-5.69 4.201-11.75 2.79-18.013m-33.949 26.012c-4.604-1.21-9.006-3.69-12.727-7.177-1.302-1.21-3.162-3.364-4.62-6.728-1.348-3.147-2.015-6.558-1.953-10.107.062-4.667 1.364-9.457 3.845-14.2 2.899-5.535 7.425-11.022 13.44-16.308a89.217 89.217 0 004.077-3.814c.76 4.232 1.581 8.883 2.45 13.72-3.814 1.255-8.527 4.386-11.612 9.998-3.519 6.511-3.38 11.999-2.65 15.456.93 4.418 3.44 8.154 6.867 10.23.93.559 5.022 2.667 6.852 2.094a1.16 1.16 0 00.775-.667c.511-1.163-.512-1.798-2.046-2.744a27.277 27.277 0 01-1.985-1.317c-3.302-2.465-4.743-6.883-3.674-11.24a12.438 12.438 0 013.674-6.216c1.643-1.534 3.674-2.62 6.03-3.255 2.031 11.161 4.078 22.23 5.705 30.523.124.682.264 1.349.388 2.016-4.34.93-8.65.837-12.836-.264m11.24-32.942c10.261-.465 14.493 6.914 15.377 11.704.465 2.527.465 6.93-1.07 11.115-1.162 3.147-3.596 7.193-8.696 9.24-.062-.42-.14-.853-.217-1.272a12578.27 12578.27 0 01-5.395-30.787m-7.27-70.394c1.767-5.69 4.48-8.914 6.464-10.634 1.736-1.504 3.364-2.217 4.279-2.217.14 0 .263.03.356.062.465.14.992.697 1.457 1.565 2.295 4.248 1.55 10.914.217 15.316-1.612 5.364-4.51 10.93-13.238 20.463-.17-1.1-.326-2.14-.48-3.116-1.241-8.216-.916-15.44.945-21.44M385.05 454.755c-1.225-5.38-3.845-9.177-4.62-10.2-3.163-4.248-7.147-7.07-11.797-8.418-3.085-.868-6.061-.992-8.464-.806a2314.44 2314.44 0 01-2.93-17.207c5.41-6.124 9.007-11.875 11.27-16.138 3.441-6.526 4.573-11.068 4.635-11.27 1.705-5.178 2.062-12.82.961-20.959-.992-7.487-3.07-14.152-5.41-17.377-1.008-1.41-2.062-2.14-3.085-2.14-1.21 0-3.705 1.225-6.573 3.984-2.279 2.17-5.519 6.03-8.06 11.999-2.977 7.007-3.194 16.417-2.838 23.082.372 7.224 1.473 12.867 1.489 12.914.015.093.279 1.58.713 4.123-.217.233-.465.45-.713.698-1.024.992-2.202 2.108-3.581 3.488-.853.852-1.799 1.751-2.79 2.713-8.372 8.076-21.068 20.307-21.068 39.312 0 4.667.9 9.054 2.666 13.038 1.566 3.565 3.845 6.82 6.76 9.673 7.673 7.503 18.183 10.68 25.174 10.526 2.93-.078 5.55-.31 7.922-.76 1.814 9.534 2.945 16.51 2.976 21.811.047 6.465-1.596 10.418-5.456 13.162-2.419 1.72-5.21 2.666-8.278 2.805-2.574.124-4.822-.34-6.232-.744h-.016s-.279-.093-.294-.279c-.016-.186.34-.232.34-.232h.032c1.907-.434 5.441-1.659 7.782-4.93 1.782-2.511 2.65-7.1.821-11.006-1.1-2.372-3.58-5.302-9.161-5.751-2.48-.202-4.728.31-6.713 1.503-1.798 1.07-3.286 2.698-4.325 4.682-2.433 4.666-1.984 10.355 1.116 14.169 2.946 3.596 7.519 5.89 12.914 6.464.852.093 1.69.124 2.526.124 4.403 0 8.759-1.194 12.309-3.38 3.627-2.557 5.736-6.51 6.402-12.091.558-4.604.17-10.48-1.209-18.494-.356-2.077-.899-5.085-1.55-8.805 5.705-1.907 9.828-5.457 13.564-11.27 3.271-5.69 4.201-11.75 2.79-18.013M351.1 480.767c-4.604-1.21-9.006-3.69-12.727-7.177-1.302-1.21-3.162-3.364-4.62-6.728-1.348-3.147-2.015-6.558-1.953-10.107.062-4.667 1.364-9.457 3.845-14.2 2.899-5.535 7.425-11.022 13.44-16.308a89.217 89.217 0 004.077-3.814c.76 4.232 1.581 8.883 2.45 13.72-3.814 1.255-8.527 4.386-11.612 9.998-3.519 6.511-3.38 11.999-2.65 15.456.93 4.418 3.44 8.154 6.867 10.23.93.559 5.022 2.667 6.852 2.094a1.16 1.16 0 00.775-.667c.511-1.163-.512-1.798-2.046-2.744a27.277 27.277 0 01-1.985-1.317c-3.302-2.465-4.743-6.883-3.674-11.24a12.438 12.438 0 013.674-6.216c1.643-1.534 3.674-2.62 6.03-3.255 2.031 11.161 4.078 22.23 5.705 30.523.124.682.264 1.349.388 2.016-4.34.93-8.65.837-12.836-.264m11.24-32.942c10.261-.465 14.493 6.914 15.377 11.704.465 2.527.465 6.93-1.07 11.115-1.162 3.147-3.596 7.193-8.696 9.24-.062-.42-.14-.853-.217-1.272a12578.27 12578.27 0 01-5.395-30.787m-7.27-70.394c1.767-5.69 4.48-8.914 6.464-10.634 1.736-1.504 3.364-2.217 4.279-2.217.14 0 .263.03.356.062.465.14.992.697 1.457 1.565 2.295 4.248 1.55 10.914.217 15.316-1.612 5.364-4.51 10.93-13.238 20.463-.17-1.1-.326-2.14-.48-3.116-1.241-8.216-.916-15.44.945-21.44"/><path class="Fermata" d="M527.993 2034.775c-9.317-10.123-17.564-10.712-22.71-10.712-5.163 0-13.301.589-22.633 10.712-4.853 5.363-8.232 15.967-8.232 21.33 0 1.892.403 3.178 1.395 3.178 2.775 0 1.38-8.541 9.72-16.974 7.332-7.333 17.16-7.441 19.548-7.441h.387c2.388 0 12.216.108 19.548 7.44 8.34 8.434 6.945 16.975 9.72 16.975.992 0 1.395-1.193 1.395-3.178 0-5.363-3.27-16.075-8.138-21.33m-29.562 18.943a6.854 6.854 0 006.851 6.852c3.767 0 6.837-3.07 6.837-6.852 0-3.767-3.07-6.836-6.837-6.836-3.782 0-6.851 3.07-6.851 6.836M2415.375 2034.775c-9.317-10.123-17.564-10.712-22.71-10.712-5.163 0-13.301.589-22.633 10.712-4.853 5.363-8.232 15.967-8.232 21.33 0 1.892.403 3.178 1.395 3.178 2.775 0 1.38-8.541 9.72-16.974 7.332-7.333 17.16-7.441 19.548-7.441h.387c2.388 0 12.216.108 19.548 7.44 8.34 8.434 6.945 16.975 9.72 16.975.992 0 1.395-1.193 1.395-3.178 0-5.363-3.27-16.075-8.138-21.33m-29.562 18.943a6.854 6.854 0 006.851 6.852c3.767 0 6.837-3.07 6.837-6.852 0-3.767-3.07-6.836-6.837-6.836-3.782 0-6.851 3.07-6.851 6.836M527.993 1472.525c-9.317-10.123-17.564-10.712-22.71-10.712-5.163 0-13.301.589-22.633 10.712-4.853 5.363-8.232 15.967-8.232 21.33 0 1.892.403 3.178 1.395 3.178 2.775 0 1.38-8.541 9.72-16.974 7.332-7.333 17.16-7.441 19.548-7.441h.387c2.388 0 12.216.108 19.548 7.44 8.34 8.434 6.945 16.975 9.72 16.975.992 0 1.395-1.193 1.395-3.178 0-5.363-3.27-16.075-8.138-21.33m-29.562 18.943a6.854 6.854 0 006.851 6.852c3.767 0 6.837-3.07 6.837-6.852 0-3.767-3.07-6.836-6.837-6.836-3.782 0-6.851 3.07-6.851 6.836M2415.375 1472.525c-9.317-10.123-17.564-10.712-22.71-10.712-5.163 0-13.301.589-22.633 10.712-4.853 5.363-8.232 15.967-8.232 21.33 0 1.892.403 3.178 1.395 3.178 2.775 0 1.38-8.541 9.72-16.974 7.332-7.333 17.16-7.441 19.548-7.441h.387c2.388 0 12.216.108 19.548 7.44 8.34 8.434 6.945 16.975 9.72 16.975.992 0 1.395-1.193 1.395-3.178 0-5.363-3.27-16.075-8.138-21.33m-29.562 18.943a6.854 6.854 0 006.851 6.852c3.767 0 6.837-3.07 6.837-6.852 0-3.767-3.07-6.836-6.837-6.836-3.782 0-6.851 3.07-6.851 6.836M527.993 910.273c-9.317-10.123-17.564-10.712-22.71-10.712-5.163 0-13.301.589-22.633 10.712-4.853 5.363-8.232 15.967-8.232 21.33 0 1.892.403 3.178 1.395 3.178 2.775 0 1.38-8.541 9.72-16.974 7.332-7.333 17.16-7.441 19.548-7.441h.387c2.388 0 12.216.108 19.548 7.44 8.34 8.434 6.945 16.975 9.72 16.975.992 0 1.395-1.193 1.395-3.178 0-5.363-3.27-16.075-8.138-21.33m-29.562 18.943a6.854 6.854 0 006.851 6.852c3.767 0 6.837-3.07 6.837-6.852 0-3.767-3.07-6.836-6.837-6.836-3.782 0-6.851 3.07-6.851 6.836M2415.375 910.273c-9.317-10.123-17.564-10.712-22.71-10.712-5.163 0-13.301.589-22.633 10.712-4.853 5.363-8.232 15.967-8.232 21.33 0 1.892.403 3.178 1.395 3.178 2.775 0 1.38-8.541 9.72-16.974 7.332-7.333 17.16-7.441 19.548-7.441h.387c2.388 0 12.216.108 19.548 7.44 8.34 8.434 6.945 16.975 9.72 16.975.992 0 1.395-1.193 1.395-3.178 0-5.363-3.27-16.075-8.138-21.33m-29.562 18.943a6.854 6.854 0 006.851 6.852c3.767 0 6.837-3.07 6.837-6.852 0-3.767-3.07-6.836-6.837-6.836-3.782 0-6.851 3.07-6.851 6.836M527.993 348.024c-9.317-10.123-17.564-10.712-22.71-10.712-5.163 0-13.301.589-22.633 10.712-4.853 5.363-8.232 15.967-8.232 21.33 0 1.892.403 3.178 1.395 3.178 2.775 0 1.38-8.541 9.72-16.974 7.332-7.333 17.16-7.441 19.548-7.441h.387c2.388 0 12.216.108 19.548 7.44 8.34 8.434 6.945 16.975 9.72 16.975.992 0 1.395-1.193 1.395-3.178 0-5.363-3.27-16.075-8.138-21.33m-29.562 18.943a6.854 6.854 0 006.851 6.852c3.767 0 6.837-3.07 6.837-6.852 0-3.767-3.07-6.836-6.837-6.836-3.782 0-6.851 3.07-6.851 6.836M2415.375 348.024c-9.317-10.123-17.564-10.712-22.71-10.712-5.163 0-13.301.589-22.633 10.712-4.853 5.363-8.232 15.967-8.232 21.33 0 1.892.403 3.178 1.395 3.178 2.775 0 1.38-8.541 9.72-16.974 7.332-7.333 17.16-7.441 19.548-7.441h.387c2.388 0 12.216.108 19.548 7.44 8.34 8.434 6.945 16.975 9.72 16.975.992 0 1.395-1.193 1.395-3.178 0-5.363-3.27-16.075-8.138-21.33m-29.562 18.943a6.854 6.854 0 006.851 6.852c3.767 0 6.837-3.07 6.837-6.852 0-3.767-3.07-6.836-6.837-6.836-3.782 0-6.851 3.07-6.851 6.836"/><path class="Lyrics" d="M498.861 2246.93l9.109-.34v-2.16h-1.25c-2.906-.09-3.156-.39-3.156-3.64v-17.5l-9.391.55v2.16h2.547c1.891.04 2.141.34 2.141 2.5v6.14c0 2.86-.297 4.54-1.047 6.15-1.047 2.25-3.047 3.5-5.5 3.5-1.547 0-2.844-.54-3.5-1.54-.641-.96-.75-1.46-.75-4.21v-15.25l-8.75.55v2.16h1.906c1.891.04 2.141.34 2.141 2.5v10.79c0 2.55.203 3.71.953 4.85 1.359 2.04 3.75 3.2 6.75 3.2 3.297 0 5.609-1.34 7.797-4.55v4.14m29.453-24.18h-1.75l-1.453 1.79c-1.797-1.4-3.594-2-6.094-2-4.406 0-7.297 2.85-7.297 7.25 0 1.96.641 3.6 1.75 4.6 1.141 1.04 2.297 1.54 5.297 2.25l2.641.61c3.953.93 5.359 1.93 5.359 3.93 0 2.36-2.047 4-4.953 4-4.25 0-7.25-2.68-8.453-7.68h-2v9.43h1.75l1.75-2.04c2.047 1.65 4.297 2.45 6.859 2.45 4.891 0 8.141-3.05 8.141-7.7 0-2.21-.703-3.89-2.094-5.05-1.203-1.05-2.203-1.45-5.25-2.09l-2.5-.57c-2.75-.59-2.75-.59-3.656-1.09-1.094-.5-1.75-1.55-1.75-2.66 0-2.04 1.906-3.43 4.656-3.43 1.891 0 3.453.64 4.844 2 1.109 1.09 1.656 2.09 2.453 4.39h1.75v-8.39M498.861 2304.53l9.109-.34v-2.16h-1.25c-2.906-.09-3.156-.39-3.156-3.64v-17.5l-9.391.55v2.16h2.547c1.891.04 2.141.34 2.141 2.5v6.14c0 2.86-.297 4.54-1.047 6.15-1.047 2.25-3.047 3.5-5.5 3.5-1.547 0-2.844-.54-3.5-1.54-.641-.96-.75-1.46-.75-4.21v-15.25l-8.75.55v2.16h1.906c1.891.04 2.141.34 2.141 2.5v10.79c0 2.55.203 3.71.953 4.85 1.359 2.04 3.75 3.2 6.75 3.2 3.297 0 5.609-1.34 7.797-4.55v4.14m29.453-24.18h-1.75l-1.453 1.79c-1.797-1.4-3.594-2-6.094-2-4.406 0-7.297 2.85-7.297 7.25 0 1.96.641 3.6 1.75 4.6 1.141 1.04 2.297 1.54 5.297 2.25l2.641.61c3.953.93 5.359 1.93 5.359 3.93 0 2.36-2.047 4-4.953 4-4.25 0-7.25-2.68-8.453-7.68h-2v9.43h1.75l1.75-2.04c2.047 1.65 4.297 2.45 6.859 2.45 4.891 0 8.141-3.05 8.141-7.7 0-2.21-.703-3.89-2.094-5.05-1.203-1.05-2.203-1.45-5.25-2.09l-2.5-.57c-2.75-.59-2.75-.59-3.656-1.09-1.094-.5-1.75-1.55-1.75-2.66 0-2.04 1.906-3.43 4.656-3.43 1.891 0 3.453.64 4.844 2 1.109 1.09 1.656 2.09 2.453 4.39h1.75v-8.39M497.97 2338.49v-9.9h-2.047c-.5 6.5-2.703 9.79-6.75 10.11v1.93h4.094v12.75c0 3.5.094 4.75.594 5.91.812 2.09 2.812 3.25 5.703 3.25 4.5 0 7.406-3.41 7.406-8.7 0-.3 0-.64-.047-1.14h-2.109c-.141 4.5-1.453 6.79-3.891 6.79-1.156 0-2.156-.61-2.5-1.45-.312-.7-.453-1.95-.453-3.75v-13.66h7.344v-2.14h-7.344m20.032 0l-9.391.55v2.16h2.547c1.89.04 2.14.34 2.14 2.5v14.29c-.046.75-.093 1.05-.296 1.3-.344.45-1.297.66-3.454.7h-.343v1.8h12.953v-1.8h-.36c-3.343-.11-3.796-.36-3.796-2.15v-19.35m-2.344-12.45c-1.61 0-2.906 1.3-2.906 2.89 0 1.61 1.296 2.91 2.859 2.91a2.91 2.91 0 002.937-2.91c0-1.59-1.296-2.89-2.89-2.89M969.013 2209.79h-2.109l-11.5 29.14c-1.344 3.91-2.641 5.11-5.5 5.32h-.203v2.34h13.25v-2.34h-1c-2.688 0-4.047-.96-4.047-2.86 0-.64.156-1.25.453-2.1l1.656-4.4h13.25l2.704 6.7c.296.8.39 1.09.39 1.34 0 .82-1.25 1.32-3.094 1.32h-2.109v2.34h15.5v-2.34h-.687c-2.61-.07-3.063-.36-4.204-3.21l-12.75-31.25m-2.453 8.19l5.641 14.2h-11.188l5.547-14.2M2352.7 2223.29l-8.89.55v2.16h2.04c1.89.04 2.14.34 2.14 2.5V2242.79c-.04.75-.09 1.05-.29 1.3-.35.45-1.3.66-3.46.7h-.18v1.8h12.59v-1.8h-.2c-3.3-.11-3.75-.36-3.75-2.2v-9.25c0-4.45 2.45-7.75 5.7-7.75 2.84 0 4.3 2.05 4.3 6.09v11.16c-.05.66-.1 1-.35 1.25-.29.45-1.29.66-3.45.7h-.2v1.8h12.65v-1.8h-.2c-3.3-.11-3.75-.36-3.75-2.15v-8.85c0-5 2.25-8.2 5.75-8.2 2.86 0 4.25 2.16 4.25 6.66v10.54c-.05.71-.09 1.05-.34 1.3-.3.45-1.3.66-3.46.7h-.2v1.8h12.66v-1.8h-.21c-3.29-.11-3.75-.36-3.75-2.2v-11.34c0-3.11-.29-4.16-1.59-5.86-1.45-1.85-3.5-2.85-5.91-2.85-3.25 0-5.65 1.55-7.79 5-.86-3-3.57-5-6.91-5-3.05 0-5.25 1.46-7.2 4.6v-3.85m57.64 12.05c.04-7.5-4.21-12.8-10.3-12.8-6.41 0-11.2 5.55-11.2 13.05 0 7.05 4.54 11.75 11.29 11.75 4.8 0 8.16-2.34 10.21-7.09l-1.75-.96c-2.05 3.85-4.16 5.35-7.5 5.35-2.55 0-4.41-1.05-5.71-3.3-.89-1.5-1.29-3.25-1.25-6h16.21m-16.16-2.16c0-1.54.2-2.64.7-4.04 1.05-3 2.66-4.46 5.11-4.46 3 0 5 2.66 5 6.71 0 1.4-.45 1.79-2.06 1.79h-8.75m27.89-9.89l-8.65.55v2.16h1.81c1.89.04 2.14.34 2.14 2.5V2242.79c-.05.75-.1 1.05-.3 1.3-.34.45-1.3.66-3.45.7h-.2v1.8h12.65v-1.8h-.2c-3.35-.11-3.8-.36-3.8-2.15v-7.39c0-2.46.35-4.71.91-5.86 1.04-2.25 3.29-3.8 5.44-3.8 1.31 0 2.81.7 3.56 1.75.75 1.09 1.09 2.59 1.09 5v10.45c-.05.75-.09 1.05-.3 1.3-.35.45-1.35.66-3.5.7h-.2v1.8h12.66v-1.8h-.21c-3.29-.11-3.75-.36-3.75-2.15v-10.05c0-3.59-.15-4.5-1.04-6.2-1.25-2.39-3.75-3.85-6.75-3.85-3.25 0-5.71 1.5-7.91 4.8v-4.05M498.861 1684.68l9.109-.34v-2.16h-1.25c-2.906-.09-3.156-.39-3.156-3.64v-17.5l-9.391.55v2.16h2.547c1.891.04 2.141.34 2.141 2.5v6.14c0 2.86-.297 4.54-1.047 6.15-1.047 2.25-3.047 3.5-5.5 3.5-1.547 0-2.844-.54-3.5-1.54-.641-.96-.75-1.46-.75-4.21v-15.25l-8.75.55v2.16h1.906c1.891.04 2.141.34 2.141 2.5v10.79c0 2.55.203 3.71.953 4.85 1.359 2.04 3.75 3.2 6.75 3.2 3.297 0 5.609-1.34 7.797-4.55v4.14m29.453-24.18h-1.75l-1.453 1.79c-1.797-1.4-3.594-2-6.094-2-4.406 0-7.297 2.85-7.297 7.25 0 1.96.641 3.6 1.75 4.6 1.141 1.04 2.297 1.54 5.297 2.25l2.641.61c3.953.93 5.359 1.93 5.359 3.93 0 2.36-2.047 4-4.953 4-4.25 0-7.25-2.68-8.453-7.68h-2v9.43h1.75l1.75-2.04c2.047 1.65 4.297 2.45 6.859 2.45 4.891 0 8.141-3.05 8.141-7.7 0-2.21-.703-3.89-2.094-5.05-1.203-1.05-2.203-1.45-5.25-2.09l-2.5-.57c-2.75-.59-2.75-.59-3.656-1.09-1.094-.5-1.75-1.55-1.75-2.66 0-2.04 1.906-3.43 4.656-3.43 1.891 0 3.453.64 4.844 2 1.109 1.09 1.656 2.09 2.453 4.39h1.75v-8.39M498.861 1742.28l9.109-.34v-2.16h-1.25c-2.906-.09-3.156-.39-3.156-3.64v-17.5l-9.391.55v2.16h2.547c1.891.04 2.141.34 2.141 2.5v6.14c0 2.86-.297 4.54-1.047 6.15-1.047 2.25-3.047 3.5-5.5 3.5-1.547 0-2.844-.54-3.5-1.54-.641-.96-.75-1.46-.75-4.21v-15.25l-8.75.55v2.16h1.906c1.891.04 2.141.34 2.141 2.5v10.79c0 2.55.203 3.71.953 4.85 1.359 2.04 3.75 3.2 6.75 3.2 3.297 0 5.609-1.34 7.797-4.55v4.14m29.453-24.18h-1.75l-1.453 1.79c-1.797-1.4-3.594-2-6.094-2-4.406 0-7.297 2.85-7.297 7.25 0 1.96.641 3.6 1.75 4.6 1.141 1.04 2.297 1.54 5.297 2.25l2.641.61c3.953.93 5.359 1.93 5.359 3.93 0 2.36-2.047 4-4.953 4-4.25 0-7.25-2.68-8.453-7.68h-2v9.43h1.75l1.75-2.04c2.047 1.65 4.297 2.45 6.859 2.45 4.891 0 8.141-3.05 8.141-7.7 0-2.21-.703-3.89-2.094-5.05-1.203-1.05-2.203-1.45-5.25-2.09l-2.5-.57c-2.75-.59-2.75-.59-3.656-1.09-1.094-.5-1.75-1.55-1.75-2.66 0-2.04 1.906-3.43 4.656-3.43 1.891 0 3.453.64 4.844 2 1.109 1.09 1.656 2.09 2.453 4.39h1.75v-8.39M497.97 1776.24v-9.9h-2.047c-.5 6.5-2.703 9.79-6.75 10.11v1.93h4.094v12.75c0 3.5.094 4.75.594 5.91.812 2.09 2.812 3.25 5.703 3.25 4.5 0 7.406-3.41 7.406-8.7 0-.3 0-.64-.047-1.14h-2.109c-.141 4.5-1.453 6.79-3.891 6.79-1.156 0-2.156-.61-2.5-1.45-.312-.7-.453-1.95-.453-3.75v-13.66h7.344v-2.14h-7.344m20.032 0l-9.391.55v2.16h2.547c1.89.04 2.14.34 2.14 2.5v14.29c-.046.75-.093 1.05-.296 1.3-.344.45-1.297.66-3.454.7h-.343v1.8h12.953v-1.8h-.36c-3.343-.11-3.796-.36-3.796-2.15v-19.35m-2.344-12.45c-1.61 0-2.906 1.3-2.906 2.89 0 1.61 1.296 2.91 2.859 2.91a2.91 2.91 0 002.937-2.91c0-1.59-1.296-2.89-2.89-2.89M969.013 1647.54h-2.109l-11.5 29.14c-1.344 3.91-2.641 5.11-5.5 5.32h-.203v2.34h13.25V1682h-1c-2.688 0-4.047-.96-4.047-2.86 0-.64.156-1.25.453-2.1l1.656-4.4h13.25l2.704 6.7c.296.8.39 1.09.39 1.34 0 .82-1.25 1.32-3.094 1.32h-2.109v2.34h15.5V1682h-.687c-2.61-.07-3.063-.36-4.204-3.21l-12.75-31.25m-2.453 8.19l5.641 14.2h-11.188l5.547-14.2M2352.7 1661.04l-8.89.55v2.16h2.04c1.89.04 2.14.34 2.14 2.5V1680.54c-.04.75-.09 1.05-.29 1.3-.35.45-1.3.66-3.46.7h-.18v1.8h12.59v-1.8h-.2c-3.3-.11-3.75-.36-3.75-2.2v-9.25c0-4.45 2.45-7.75 5.7-7.75 2.84 0 4.3 2.05 4.3 6.09v11.16c-.05.66-.1 1-.35 1.25-.29.45-1.29.66-3.45.7h-.2v1.8h12.65v-1.8h-.2c-3.3-.11-3.75-.36-3.75-2.15v-8.85c0-5 2.25-8.2 5.75-8.2 2.86 0 4.25 2.16 4.25 6.66v10.54c-.05.71-.09 1.05-.34 1.3-.3.45-1.3.66-3.46.7h-.2v1.8h12.66v-1.8h-.21c-3.29-.11-3.75-.36-3.75-2.2V1669c0-3.11-.29-4.16-1.59-5.86-1.45-1.85-3.5-2.85-5.91-2.85-3.25 0-5.65 1.55-7.79 5-.86-3-3.57-5-6.91-5-3.05 0-5.25 1.46-7.2 4.6v-3.85m57.64 12.05c.04-7.5-4.21-12.8-10.3-12.8-6.41 0-11.2 5.55-11.2 13.05 0 7.05 4.54 11.75 11.29 11.75 4.8 0 8.16-2.34 10.21-7.09l-1.75-.96c-2.05 3.85-4.16 5.35-7.5 5.35-2.55 0-4.41-1.05-5.71-3.3-.89-1.5-1.29-3.25-1.25-6h16.21m-16.16-2.16c0-1.54.2-2.64.7-4.04 1.05-3 2.66-4.46 5.11-4.46 3 0 5 2.66 5 6.71 0 1.4-.45 1.79-2.06 1.79h-8.75m27.89-9.89l-8.65.55v2.16h1.81c1.89.04 2.14.34 2.14 2.5V1680.54c-.05.75-.1 1.05-.3 1.3-.34.45-1.3.66-3.45.7h-.2v1.8h12.65v-1.8h-.2c-3.35-.11-3.8-.36-3.8-2.15V1673c0-2.46.35-4.71.91-5.86 1.04-2.25 3.29-3.8 5.44-3.8 1.31 0 2.81.7 3.56 1.75.75 1.09 1.09 2.59 1.09 5v10.45c-.05.75-.09 1.05-.3 1.3-.35.45-1.35.66-3.5.7h-.2v1.8h12.66v-1.8h-.21c-3.29-.11-3.75-.36-3.75-2.15v-10.05c0-3.59-.15-4.5-1.04-6.2-1.25-2.39-3.75-3.85-6.75-3.85-3.25 0-5.71 1.5-7.91 4.8v-4.05M498.861 1135.03l9.109-.35v-2.15h-1.25c-2.906-.1-3.156-.39-3.156-3.64v-17.5l-9.391.54v2.16h2.547c1.891.05 2.141.34 2.141 2.5v6.14c0 2.86-.297 4.55-1.047 6.16-1.047 2.25-3.047 3.5-5.5 3.5-1.547 0-2.844-.55-3.5-1.55-.641-.95-.75-1.45-.75-4.2v-15.25l-8.75.54v2.16h1.906c1.891.05 2.141.34 2.141 2.5v10.8c0 2.54.203 3.7.953 4.84 1.359 2.05 3.75 3.2 6.75 3.2 3.297 0 5.609-1.34 7.797-4.54v4.14m29.453-24.19h-1.75l-1.453 1.8c-1.797-1.41-3.594-2-6.094-2-4.406 0-7.297 2.84-7.297 7.25 0 1.95.641 3.59 1.75 4.59 1.141 1.05 2.297 1.55 5.297 2.25l2.641.61c3.953.94 5.359 1.94 5.359 3.94 0 2.36-2.047 4-4.953 4-4.25 0-7.25-2.69-8.453-7.69h-2v9.44h1.75l1.75-2.05c2.047 1.66 4.297 2.45 6.859 2.45 4.891 0 8.141-3.04 8.141-7.7 0-2.2-.703-3.89-2.094-5.05-1.203-1.04-2.203-1.45-5.25-2.09l-2.5-.56c-2.75-.6-2.75-.6-3.656-1.1-1.094-.5-1.75-1.54-1.75-2.65 0-2.05 1.906-3.44 4.656-3.44 1.891 0 3.453.64 4.844 2 1.109 1.09 1.656 2.09 2.453 4.39h1.75v-8.39M498.861 1192.63l9.109-.35v-2.15h-1.25c-2.906-.1-3.156-.39-3.156-3.64v-17.5l-9.391.54v2.16h2.547c1.891.05 2.141.34 2.141 2.5v6.14c0 2.86-.297 4.55-1.047 6.16-1.047 2.25-3.047 3.5-5.5 3.5-1.547 0-2.844-.55-3.5-1.55-.641-.95-.75-1.45-.75-4.2v-15.25l-8.75.54v2.16h1.906c1.891.05 2.141.34 2.141 2.5v10.8c0 2.54.203 3.7.953 4.84 1.359 2.05 3.75 3.2 6.75 3.2 3.297 0 5.609-1.34 7.797-4.54v4.14m29.453-24.19h-1.75l-1.453 1.8c-1.797-1.41-3.594-2-6.094-2-4.406 0-7.297 2.84-7.297 7.25 0 1.95.641 3.59 1.75 4.59 1.141 1.05 2.297 1.55 5.297 2.25l2.641.61c3.953.94 5.359 1.94 5.359 3.94 0 2.36-2.047 4-4.953 4-4.25 0-7.25-2.69-8.453-7.69h-2v9.44h1.75l1.75-2.05c2.047 1.66 4.297 2.45 6.859 2.45 4.891 0 8.141-3.04 8.141-7.7 0-2.2-.703-3.89-2.094-5.05-1.203-1.04-2.203-1.45-5.25-2.09l-2.5-.56c-2.75-.6-2.75-.6-3.656-1.1-1.094-.5-1.75-1.54-1.75-2.65 0-2.05 1.906-3.44 4.656-3.44 1.891 0 3.453.64 4.844 2 1.109 1.09 1.656 2.09 2.453 4.39h1.75v-8.39M497.97 1226.59v-9.91h-2.047c-.5 6.5-2.703 9.8-6.75 10.11v1.94h4.094v12.75c0 3.5.094 4.75.594 5.9.812 2.1 2.812 3.25 5.703 3.25 4.5 0 7.406-3.4 7.406-8.7 0-.3 0-.64-.047-1.14h-2.109c-.141 4.5-1.453 6.8-3.891 6.8-1.156 0-2.156-.61-2.5-1.46-.312-.7-.453-1.95-.453-3.75v-13.65h7.344v-2.14h-7.344m20.032 0l-9.391.54v2.16h2.547c1.89.05 2.14.34 2.14 2.5V1246.09c-.046.75-.093 1.04-.296 1.29-.344.46-1.297.66-3.454.71h-.343v1.79h12.953v-1.79h-.36c-3.343-.11-3.796-.36-3.796-2.16v-19.34m-2.344-12.46c-1.61 0-2.906 1.3-2.906 2.89 0 1.61 1.296 2.91 2.859 2.91a2.91 2.91 0 002.937-2.91c0-1.59-1.296-2.89-2.89-2.89M969.013 1097.89h-2.109l-11.5 29.14c-1.344 3.9-2.641 5.11-5.5 5.31h-.203v2.34h13.25v-2.34h-1c-2.688 0-4.047-.95-4.047-2.86 0-.64.156-1.25.453-2.09l1.656-4.41h13.25l2.704 6.7c.296.8.39 1.1.39 1.35 0 .81-1.25 1.31-3.094 1.31h-2.109v2.34h15.5v-2.34h-.687c-2.61-.06-3.063-.36-4.204-3.2l-12.75-31.25m-2.453 8.18l5.641 14.21h-11.188l5.547-14.21M2352.7 1111.39l-8.89.54v2.16h2.04c1.89.05 2.14.34 2.14 2.5V1130.89c-.04.75-.09 1.04-.29 1.29-.35.46-1.3.66-3.46.71h-.18v1.79h12.59v-1.79h-.2c-3.3-.11-3.75-.36-3.75-2.21v-9.25c0-4.45 2.45-7.75 5.7-7.75 2.84 0 4.3 2.05 4.3 6.1v11.15c-.05.66-.1 1-.35 1.25-.29.46-1.29.66-3.45.71h-.2v1.79h12.65v-1.79h-.2c-3.3-.11-3.75-.36-3.75-2.16v-8.84c0-5 2.25-8.21 5.75-8.21 2.86 0 4.25 2.16 4.25 6.66V1130.89c-.05.7-.09 1.04-.34 1.29-.3.46-1.3.66-3.46.71h-.2v1.79h12.66v-1.79h-.21c-3.29-.11-3.75-.36-3.75-2.21v-11.34c0-3.11-.29-4.16-1.59-5.86-1.45-1.84-3.5-2.84-5.91-2.84-3.25 0-5.65 1.54-7.79 5-.86-3-3.57-5-6.91-5-3.05 0-5.25 1.45-7.2 4.59v-3.84m57.64 12.04c.04-7.5-4.21-12.79-10.3-12.79-6.41 0-11.2 5.54-11.2 13.04 0 7.05 4.54 11.75 11.29 11.75 4.8 0 8.16-2.34 10.21-7.09l-1.75-.95c-2.05 3.84-4.16 5.34-7.5 5.34-2.55 0-4.41-1.05-5.71-3.3-.89-1.5-1.29-3.25-1.25-6h16.21m-16.16-2.15c0-1.55.2-2.64.7-4.05 1.05-3 2.66-4.45 5.11-4.45 3 0 5 2.65 5 6.7 0 1.41-.45 1.8-2.06 1.8h-8.75m27.89-9.89l-8.65.54v2.16h1.81c1.89.05 2.14.34 2.14 2.5V1130.89c-.05.75-.1 1.04-.3 1.29-.34.46-1.3.66-3.45.71h-.2v1.79h12.65v-1.79h-.2c-3.35-.11-3.8-.36-3.8-2.16V1123.34c0-2.45.35-4.7.91-5.86 1.04-2.25 3.29-3.8 5.44-3.8 1.31 0 2.81.71 3.56 1.75.75 1.1 1.09 2.6 1.09 5V1130.89c-.05.75-.09 1.04-.3 1.29-.35.46-1.35.66-3.5.71h-.2v1.79h12.66v-1.79h-.21c-3.29-.11-3.75-.36-3.75-2.16v-10.05c0-3.59-.15-4.5-1.04-6.2-1.25-2.39-3.75-3.84-6.75-3.84-3.25 0-5.71 1.5-7.91 4.79v-4.04M687.796 567.547l9.109-.344v-2.156h-1.25c-2.906-.094-3.156-.391-3.156-3.641v-17.5l-9.391.547v2.156h2.547c1.891.047 2.141.344 2.141 2.5v6.141c0 2.859-.297 4.547-1.047 6.156-1.047 2.25-3.047 3.5-5.5 3.5-1.547 0-2.844-.547-3.5-1.547-.641-.953-.75-1.453-.75-4.203v-15.25l-8.75.547v2.156h1.906c1.891.047 2.141.344 2.141 2.5v10.797c0 2.547.203 3.703.953 4.844 1.359 2.047 3.75 3.203 6.75 3.203 3.297 0 5.609-1.344 7.797-4.547v4.141m29.453-24.188h-1.75l-1.453 1.797c-1.797-1.406-3.594-2-6.094-2-4.406 0-7.297 2.844-7.297 7.25 0 1.953.641 3.594 1.75 4.594 1.141 1.047 2.297 1.547 5.297 2.25l2.64.609c3.954.938 5.36 1.938 5.36 3.938 0 2.359-2.047 4-4.953 4-4.25 0-7.25-2.688-8.453-7.688h-2v9.438h1.75l1.75-2.047c2.046 1.656 4.296 2.453 6.859 2.453 4.891 0 8.141-3.047 8.141-7.703 0-2.203-.704-3.891-2.094-5.047-1.203-1.047-2.203-1.453-5.25-2.094l-2.5-.562c-2.75-.594-2.75-.594-3.656-1.094-1.094-.5-1.75-1.547-1.75-2.656 0-2.047 1.906-3.438 4.656-3.438 1.89 0 3.453.641 4.844 2 1.109 1.094 1.656 2.094 2.453 4.391h1.75v-8.391M687.796 625.147l9.109-.344v-2.156h-1.25c-2.906-.094-3.156-.391-3.156-3.641v-17.5l-9.391.547v2.156h2.547c1.891.047 2.141.344 2.141 2.5v6.141c0 2.859-.297 4.547-1.047 6.156-1.047 2.25-3.047 3.5-5.5 3.5-1.547 0-2.844-.547-3.5-1.547-.641-.953-.75-1.453-.75-4.203v-15.25l-8.75.547v2.156h1.906c1.891.047 2.141.344 2.141 2.5v10.797c0 2.547.203 3.703.953 4.844 1.359 2.047 3.75 3.203 6.75 3.203 3.297 0 5.609-1.344 7.797-4.547v4.141m29.453-24.188h-1.75l-1.453 1.797c-1.797-1.406-3.594-2-6.094-2-4.406 0-7.297 2.844-7.297 7.25 0 1.953.641 3.594 1.75 4.594 1.141 1.047 2.297 1.547 5.297 2.25l2.64.609c3.954.938 5.36 1.938 5.36 3.938 0 2.359-2.047 4-4.953 4-4.25 0-7.25-2.688-8.453-7.688h-2v9.438h1.75l1.75-2.047c2.046 1.656 4.296 2.453 6.859 2.453 4.891 0 8.141-3.047 8.141-7.703 0-2.203-.704-3.891-2.094-5.047-1.203-1.047-2.203-1.453-5.25-2.094l-2.5-.562c-2.75-.594-2.75-.594-3.656-1.094-1.094-.5-1.75-1.547-1.75-2.656 0-2.047 1.906-3.438 4.656-3.438 1.89 0 3.453.641 4.844 2 1.109 1.094 1.656 2.094 2.453 4.391h1.75v-8.391M686.905 659.106V649.2h-2.047c-.5 6.5-2.703 9.797-6.75 10.109v1.938h4.094v12.75c0 3.5.094 4.75.594 5.906.812 2.094 2.812 3.25 5.703 3.25 4.5 0 7.406-3.406 7.406-8.703 0-.297 0-.641-.047-1.141h-2.109c-.141 4.5-1.453 6.797-3.891 6.797-1.156 0-2.156-.609-2.5-1.453-.312-.703-.453-1.953-.453-3.75v-13.656h7.344v-2.141h-7.344m20.031 0l-9.39.547v2.156h2.546c1.891.047 2.141.344 2.141 2.5v14.297c-.047.75-.094 1.047-.297 1.297-.344.453-1.297.656-3.453.703h-.344v1.797h12.953v-1.797h-.359c-3.344-.109-3.797-.359-3.797-2.156V659.106m-2.344-12.453a2.897 2.897 0 00-2.906 2.89c0 1.61 1.297 2.907 2.86 2.907 1.64 0 2.937-1.297 2.937-2.907a2.894 2.894 0 00-2.891-2.89M969.013 530.406h-2.109l-11.5 29.141c-1.344 3.906-2.641 5.109-5.5 5.312h-.203v2.344h13.25v-2.344h-1c-2.688 0-4.047-.953-4.047-2.859 0-.641.156-1.25.453-2.094l1.656-4.406h13.25l2.704 6.703c.296.797.39 1.094.39 1.344 0 .812-1.25 1.312-3.094 1.312h-2.109v2.344h15.5v-2.344h-.687c-2.61-.062-3.063-.359-4.204-3.203l-12.75-31.25m-2.453 8.187l5.641 14.204h-11.188l5.547-14.204M2352.7 543.906l-8.89.547v2.156h2.04c1.89.047 2.14.344 2.14 2.5v14.297c-.04.75-.09 1.047-.29 1.297-.35.453-1.3.656-3.46.703h-.18v1.797h12.59v-1.797h-.2c-3.3-.109-3.75-.359-3.75-2.203v-9.25c0-4.453 2.45-7.75 5.7-7.75 2.84 0 4.3 2.047 4.3 6.094v11.156c-.05.656-.1 1-.35 1.25-.29.453-1.29.656-3.45.703h-.2v1.797h12.65v-1.797h-.2c-3.3-.109-3.75-.359-3.75-2.156v-8.844c0-5 2.25-8.203 5.75-8.203 2.86 0 4.25 2.156 4.25 6.656v10.547c-.05.703-.09 1.047-.34 1.297-.3.453-1.3.656-3.46.703h-.2v1.797h12.66v-1.797h-.21c-3.29-.109-3.75-.359-3.75-2.203V551.859c0-3.109-.29-4.156-1.59-5.859-1.45-1.844-3.5-2.844-5.91-2.844-3.25 0-5.65 1.547-7.79 5-.86-3-3.57-5-6.91-5-3.05 0-5.25 1.453-7.2 4.594v-3.844m57.64 12.047c.04-7.5-4.21-12.797-10.3-12.797-6.41 0-11.2 5.547-11.2 13.047 0 7.047 4.54 11.75 11.29 11.75 4.8 0 8.16-2.344 10.21-7.094l-1.75-.953c-2.05 3.844-4.16 5.344-7.5 5.344-2.55 0-4.41-1.047-5.71-3.297-.89-1.5-1.29-3.25-1.25-6h16.21m-16.16-2.156c0-1.547.2-2.641.7-4.047 1.05-3 2.66-4.453 5.11-4.453 3 0 5 2.656 5 6.703 0 1.406-.45 1.797-2.06 1.797h-8.75m27.89-9.891l-8.65.547v2.156h1.81c1.89.047 2.14.344 2.14 2.5v14.297c-.05.75-.1 1.047-.3 1.297-.34.453-1.3.656-3.45.703h-.2v1.797h12.65v-1.797h-.2c-3.35-.109-3.8-.359-3.8-2.156v-7.391c0-2.453.35-4.703.91-5.859 1.04-2.25 3.29-3.797 5.44-3.797 1.31 0 2.81.703 3.56 1.75.75 1.094 1.09 2.594 1.09 5v10.453c-.05.75-.09 1.047-.3 1.297-.35.453-1.35.656-3.5.703h-.2v1.797h12.66v-1.797h-.21c-3.29-.109-3.75-.359-3.75-2.156v-10.047c0-3.594-.15-4.5-1.04-6.203-1.25-2.391-3.75-3.844-6.75-3.844-3.25 0-5.71 1.5-7.91 4.797v-4.047"/><path class="StaffText" d="M979.06 324.964h-1.906l-2 2.953c-3.641-2.656-5.5-3.359-8.953-3.359-4.75 0-8.797 2-12.141 6-3.203 3.812-4.703 8.016-4.703 13.156 0 10.797 7.047 18.453 16.906 18.453 8 0 13.094-4.703 14.25-13.093l-2.359-.407c-1.344 7.453-5.141 11.157-11.297 11.157-7.406 0-10.906-5.11-10.906-15.907 0-5.703.75-9.453 2.453-12.453 1.547-2.797 4.609-4.547 7.859-4.547 3.5 0 6.594 1.844 8.5 5.047.954 1.656 1.641 3.5 2.844 7.453h2.203l-.75-14.453m23.59-.406c-4.449 0-8.246 1.406-11.308 4.203-3.844 3.547-6.094 8.953-6.094 14.656 0 5.594 2.297 11.047 6.094 14.547 3 2.75 6.812 4.203 11.108 4.203 9.8 0 17.2-8.093 17.2-18.797 0-10.609-7.4-18.812-17-18.812m-.06 2.359c3.36 0 6.16 1.547 7.95 4.297 1.86 2.953 2.5 6 2.5 12.156 0 6.094-.64 9.141-2.5 12.141-1.79 2.813-4.54 4.313-8.09 4.313-3.546 0-6.296-1.454-8.108-4.313-1.891-3-2.5-6.047-2.5-12.25 0-6.047.656-9.047 2.5-12.047 1.859-2.906 4.5-4.297 8.248-4.297m20.75 34.5h16.8c4.45 0 7.86-.703 10.5-2.203 5.05-2.844 7.86-8.547 7.86-16.047 0-6.906-2.5-12.297-7.11-15.297-2.75-1.75-6.45-2.562-12.16-2.562h-15.89v2.359h.95c2.8.047 3.75.203 4.15.703.29.438.29.547.29 3.094v23.797c0 2.563 0 2.656-.29 3.109-.4.5-1.35.641-4.15.704h-.95v2.343m13.85-2.343c-2.55 0-2.85-.313-2.85-2.75v-25.86c0-2.453.35-2.797 2.85-2.797h2.6c8.55 0 12.1 4.641 12.1 15.703 0 11.204-3.2 15.704-11.3 15.704h-3.4m40.54-34.454h-2.11l-11.5 29.141c-1.34 3.906-2.64 5.109-5.5 5.313h-.2v2.343h13.25v-2.343h-1c-2.69 0-4.05-.954-4.05-2.86 0-.64.16-1.25.46-2.094l1.65-4.406h13.25l2.71 6.703c.29.797.39 1.094.39 1.344 0 .813-1.25 1.313-3.1 1.313h-2.11v2.343h15.5v-2.343h-.68c-2.61-.063-3.07-.36-4.21-3.204l-12.75-31.25m-2.45 8.188l5.64 14.203h-11.19l5.55-14.203"/><path class="LyricsLineSegment" fill="none" stroke="#000" stroke-width="3.72" stroke-linejoin="bevel" d="M1147.68 2233.49h19.85M1486.2 2233.49h19.84M1824.71 2233.49h19.85M2163.23 2233.49h19.84M1147.68 1671.25h19.85M1486.2 1671.25h19.84M1824.71 1671.25h19.85M2163.23 1671.25h19.84M1147.68 1121.59h19.85M1486.2 1121.59h19.84M1824.71 1121.59h19.85M2163.23 1121.59h19.84M1147.68 554.108h19.85M1486.2 554.108h19.84M1824.71 554.108h19.85M2163.23 554.108h19.84"/><path class="Page" d="M237.828 237.973l-.609 2.75c-.5 2.204-.828 2.907-1.266 3.188-.547.391-.656.391-4.125.437h-10.609c1.922-1.656 3.359-2.687 5.5-4.125 7.75-5 9.344-6.218 10.937-8.25 1.875-2.468 2.969-5.39 2.969-7.968 0-5.891-5.766-10.344-13.516-10.344-7.484 0-13.265 4.844-13.265 11.109 0 3.844 2.156 6.328 5.453 6.328 2.859 0 4.672-1.812 4.672-4.671 0-2.375-1.047-3.75-3.578-4.954-.61-.281-.875-.609-.875-1.046 0-1.766 2.968-3.625 5.718-3.625 3.844 0 6.047 2.359 6.047 6.437 0 4.563-1.765 7.797-7.593 14.016-6.157 6.547-8.297 9.015-11.047 12.984v2.578c1.422-.156 2.031-.219 2.859-.219h20.672c1.047 0 1.703.063 3.359.219l1.266-14.844h-2.969"/><path class="Bracket" fill="none" stroke="#000" stroke-width="10.91" stroke-linejoin="bevel" d="M284.488 368.362V2190.04"/><path class="Bracket" d="M327.056 346.334c-.201-.093-.496-.202-.698-.202-.403 0-.852.156-1.085.496-.201.295-10.122 15.58-29.081 15.58h-15.766c-.806 0-1.395.496-1.395 1.287v10.324h12.107c30.554 0 36.414-25.485 36.507-25.795.031-.093.109-.295.109-.496 0-.496-.31-.9-.698-1.194M327.056 2212.065c.388-.294.698-.698.698-1.194 0-.201-.078-.403-.109-.496-.093-.31-5.953-25.795-36.507-25.795h-12.107v10.325c0 .79.59 1.286 1.395 1.286h15.766c18.959 0 28.88 15.285 29.081 15.58.233.34.682.496 1.085.496.202 0 .497-.109.698-.202"/></svg>
