<?xml version="1.0" encoding="UTF-8" standalone="no"?>
<!-- Created with Inkscape (http://www.inkscape.org/) -->

<svg
   xmlns:dc="http://purl.org/dc/elements/1.1/"
   xmlns:cc="http://creativecommons.org/ns#"
   xmlns:rdf="http://www.w3.org/1999/02/22-rdf-syntax-ns#"
   xmlns:svg="http://www.w3.org/2000/svg"
   xmlns="http://www.w3.org/2000/svg"
   xmlns:xlink="http://www.w3.org/1999/xlink"
   xmlns:sodipodi="http://sodipodi.sourceforge.net/DTD/sodipodi-0.dtd"
   xmlns:inkscape="http://www.inkscape.org/namespaces/inkscape"
   version="1.1"
   id="svg2"
   xml:space="preserve"
   width="814.52399"
   height="1054.5239"
   viewBox="0 0 814.52398 1054.5239"
   sodipodi:docname="modelo.svg"
   inkscape:version="0.92.4 (unknown)"><metadata
     id="metadata8"><rdf:RDF><cc:Work
         rdf:about=""><dc:format>image/svg+xml</dc:format><dc:type
           rdf:resource="http://purl.org/dc/dcmitype/StillImage" /><dc:title></dc:title></cc:Work></rdf:RDF></metadata><defs
     id="defs6" /><sodipodi:namedview
     pagecolor="#ffffff"
     bordercolor="#666666"
     borderopacity="1"
     objecttolerance="10"
     gridtolerance="10"
     guidetolerance="10"
     inkscape:pageopacity="0"
     inkscape:pageshadow="2"
     inkscape:window-width="1440"
     inkscape:window-height="849"
     id="namedview4"
     showgrid="false"
     inkscape:zoom="0.5945743"
     inkscape:cx="547.94591"
     inkscape:cy="658.16471"
     inkscape:window-x="0"
     inkscape:window-y="0"
     inkscape:window-maximized="1"
     inkscape:current-layer="g10"
     fit-margin-top="0"
     fit-margin-left="0"
     fit-margin-right="0"
     fit-margin-bottom="0" /><g
     id="g10"
     inkscape:groupmode="layer"
     inkscape:label="hoja_pentagramada"
     transform="matrix(1.3333333,0,0,-1.3333333,2.140421,1121.3609)"><rect
       style="opacity:1;fill:#ffffff;fill-opacity:1;stroke:none;stroke-width:1.10701513;stroke-miterlimit:10;stroke-dasharray:none;stroke-dashoffset:0;stroke-opacity:1"
       id="rect1328"
       width="610.89301"
       height="790.89301"
       x="-1.6053158"
       y="-841.02069"
       transform="scale(1,-1)" /><g
       id="g6356"
       transform="matrix(0.94325943,0,0,1.0008189,17.240124,-36.873474)"><path
         d="M 35.04985,146.57816 H 572.63252"
         style="fill:none;stroke:#000000;stroke-width:0.75;stroke-linecap:round;stroke-linejoin:bevel;stroke-miterlimit:10;stroke-dasharray:none;stroke-opacity:1"
         id="path36"
         inkscape:connector-curvature="0" /><path
         d="M 35.04985,140.07816 H 572.63252"
         style="fill:none;stroke:#000000;stroke-width:0.75;stroke-linecap:round;stroke-linejoin:bevel;stroke-miterlimit:10;stroke-dasharray:none;stroke-opacity:1"
         id="path38"
         inkscape:connector-curvature="0" /><path
         d="M 35.04985,133.57816 H 572.63252"
         style="fill:none;stroke:#000000;stroke-width:0.75;stroke-linecap:round;stroke-linejoin:bevel;stroke-miterlimit:10;stroke-dasharray:none;stroke-opacity:1"
         id="path40"
         inkscape:connector-curvature="0" /><path
         d="M 35.04985,127.07816 H 572.63252"
         style="fill:none;stroke:#000000;stroke-width:0.75;stroke-linecap:round;stroke-linejoin:bevel;stroke-miterlimit:10;stroke-dasharray:none;stroke-opacity:1"
         id="path42"
         inkscape:connector-curvature="0" /><path
         d="M 35.04985,120.57816 H 572.63252"
         style="fill:none;stroke:#000000;stroke-width:0.75;stroke-linecap:round;stroke-linejoin:bevel;stroke-miterlimit:10;stroke-dasharray:none;stroke-opacity:1"
         id="path44"
         inkscape:connector-curvature="0" /></g><g
       id="g6349"
       transform="matrix(0.94325943,0,0,1.0008189,17.240124,-34.086231)"><path
         d="M 35.04985,196.3532 H 572.63252"
         style="fill:none;stroke:#000000;stroke-width:0.75;stroke-linecap:round;stroke-linejoin:bevel;stroke-miterlimit:10;stroke-dasharray:none;stroke-opacity:1"
         id="path48"
         inkscape:connector-curvature="0" /><path
         d="M 35.04985,189.8532 H 572.63252"
         style="fill:none;stroke:#000000;stroke-width:0.75;stroke-linecap:round;stroke-linejoin:bevel;stroke-miterlimit:10;stroke-dasharray:none;stroke-opacity:1"
         id="path50"
         inkscape:connector-curvature="0" /><path
         d="M 35.04985,183.3532 H 572.63252"
         style="fill:none;stroke:#000000;stroke-width:0.75;stroke-linecap:round;stroke-linejoin:bevel;stroke-miterlimit:10;stroke-dasharray:none;stroke-opacity:1"
         id="path52"
         inkscape:connector-curvature="0" /><path
         d="M 35.04985,176.8532 H 572.63252"
         style="fill:none;stroke:#000000;stroke-width:0.75;stroke-linecap:round;stroke-linejoin:bevel;stroke-miterlimit:10;stroke-dasharray:none;stroke-opacity:1"
         id="path54"
         inkscape:connector-curvature="0" /><path
         d="M 35.04985,170.3532 H 572.63252"
         style="fill:none;stroke:#000000;stroke-width:0.75;stroke-linecap:round;stroke-linejoin:bevel;stroke-miterlimit:10;stroke-dasharray:none;stroke-opacity:1"
         id="path56"
         inkscape:connector-curvature="0" /></g><g
       id="g6342"
       transform="matrix(0.94325943,0,0,1.0008189,17.240124,-31.298989)"><path
         d="M 35.04985,246.12823 H 572.63252"
         style="fill:none;stroke:#000000;stroke-width:0.75;stroke-linecap:round;stroke-linejoin:bevel;stroke-miterlimit:10;stroke-dasharray:none;stroke-opacity:1"
         id="path60"
         inkscape:connector-curvature="0" /><path
         d="M 35.04985,239.62823 H 572.63252"
         style="fill:none;stroke:#000000;stroke-width:0.75;stroke-linecap:round;stroke-linejoin:bevel;stroke-miterlimit:10;stroke-dasharray:none;stroke-opacity:1"
         id="path62"
         inkscape:connector-curvature="0" /><path
         d="M 35.04985,233.12823 H 572.63252"
         style="fill:none;stroke:#000000;stroke-width:0.75;stroke-linecap:round;stroke-linejoin:bevel;stroke-miterlimit:10;stroke-dasharray:none;stroke-opacity:1"
         id="path64"
         inkscape:connector-curvature="0" /><path
         d="M 35.04985,226.62823 H 572.63252"
         style="fill:none;stroke:#000000;stroke-width:0.75;stroke-linecap:round;stroke-linejoin:bevel;stroke-miterlimit:10;stroke-dasharray:none;stroke-opacity:1"
         id="path66"
         inkscape:connector-curvature="0" /><path
         d="M 35.04985,220.12823 H 572.63252"
         style="fill:none;stroke:#000000;stroke-width:0.75;stroke-linecap:round;stroke-linejoin:bevel;stroke-miterlimit:10;stroke-dasharray:none;stroke-opacity:1"
         id="path68"
         inkscape:connector-curvature="0" /></g><g
       id="g6296"
       transform="matrix(0.94325943,0,0,1.0008189,17.240124,-20.149999)"><path
         d="M 35.04985,445.22835 H 572.63252"
         style="fill:none;stroke:#000000;stroke-width:0.75;stroke-linecap:round;stroke-linejoin:bevel;stroke-miterlimit:10;stroke-dasharray:none;stroke-opacity:1"
         id="path72"
         inkscape:connector-curvature="0" /><path
         d="M 35.04985,438.72835 H 572.63252"
         style="fill:none;stroke:#000000;stroke-width:0.75;stroke-linecap:round;stroke-linejoin:bevel;stroke-miterlimit:10;stroke-dasharray:none;stroke-opacity:1"
         id="path74"
         inkscape:connector-curvature="0" /><path
         d="M 35.04985,432.22835 H 572.63252"
         style="fill:none;stroke:#000000;stroke-width:0.75;stroke-linecap:round;stroke-linejoin:bevel;stroke-miterlimit:10;stroke-dasharray:none;stroke-opacity:1"
         id="path76"
         inkscape:connector-curvature="0" /><path
         d="M 35.04985,425.72835 H 572.63252"
         style="fill:none;stroke:#000000;stroke-width:0.75;stroke-linecap:round;stroke-linejoin:bevel;stroke-miterlimit:10;stroke-dasharray:none;stroke-opacity:1"
         id="path78"
         inkscape:connector-curvature="0" /><path
         d="M 35.04985,419.22835 H 572.63252"
         style="fill:none;stroke:#000000;stroke-width:0.75;stroke-linecap:round;stroke-linejoin:bevel;stroke-miterlimit:10;stroke-dasharray:none;stroke-opacity:1"
         id="path80"
         inkscape:connector-curvature="0" /></g><g
       id="g6303"
       transform="matrix(0.94325943,0,0,1.0008189,17.240124,-22.937253)"><path
         d="M 35.04985,395.45332 H 572.63252"
         style="fill:none;stroke:#000000;stroke-width:0.75;stroke-linecap:round;stroke-linejoin:bevel;stroke-miterlimit:10;stroke-dasharray:none;stroke-opacity:1"
         id="path84"
         inkscape:connector-curvature="0" /><path
         d="M 35.04985,388.95332 H 572.63252"
         style="fill:none;stroke:#000000;stroke-width:0.75;stroke-linecap:round;stroke-linejoin:bevel;stroke-miterlimit:10;stroke-dasharray:none;stroke-opacity:1"
         id="path86"
         inkscape:connector-curvature="0" /><path
         d="M 35.04985,382.45332 H 572.63252"
         style="fill:none;stroke:#000000;stroke-width:0.75;stroke-linecap:round;stroke-linejoin:bevel;stroke-miterlimit:10;stroke-dasharray:none;stroke-opacity:1"
         id="path88"
         inkscape:connector-curvature="0" /><path
         d="M 35.04985,375.95332 H 572.63252"
         style="fill:none;stroke:#000000;stroke-width:0.75;stroke-linecap:round;stroke-linejoin:bevel;stroke-miterlimit:10;stroke-dasharray:none;stroke-opacity:1"
         id="path90"
         inkscape:connector-curvature="0" /><path
         d="M 35.04985,369.45332 H 572.63252"
         style="fill:none;stroke:#000000;stroke-width:0.75;stroke-linecap:round;stroke-linejoin:bevel;stroke-miterlimit:10;stroke-dasharray:none;stroke-opacity:1"
         id="path92"
         inkscape:connector-curvature="0" /></g><g
       id="g6328"
       transform="matrix(0.94325943,0,0,1.0008189,17.240124,-25.724506)"><path
         d="M 35.04985,345.67829 H 572.63252"
         style="fill:none;stroke:#000000;stroke-width:0.75;stroke-linecap:round;stroke-linejoin:bevel;stroke-miterlimit:10;stroke-dasharray:none;stroke-opacity:1"
         id="path96"
         inkscape:connector-curvature="0" /><path
         d="M 35.04985,339.17829 H 572.63252"
         style="fill:none;stroke:#000000;stroke-width:0.75;stroke-linecap:round;stroke-linejoin:bevel;stroke-miterlimit:10;stroke-dasharray:none;stroke-opacity:1"
         id="path98"
         inkscape:connector-curvature="0" /><path
         d="M 35.04985,332.67829 H 572.63252"
         style="fill:none;stroke:#000000;stroke-width:0.75;stroke-linecap:round;stroke-linejoin:bevel;stroke-miterlimit:10;stroke-dasharray:none;stroke-opacity:1"
         id="path100"
         inkscape:connector-curvature="0" /><path
         d="M 35.04985,326.17829 H 572.63252"
         style="fill:none;stroke:#000000;stroke-width:0.75;stroke-linecap:round;stroke-linejoin:bevel;stroke-miterlimit:10;stroke-dasharray:none;stroke-opacity:1"
         id="path102"
         inkscape:connector-curvature="0" /><path
         d="M 35.04985,319.67829 H 572.63252"
         style="fill:none;stroke:#000000;stroke-width:0.75;stroke-linecap:round;stroke-linejoin:bevel;stroke-miterlimit:10;stroke-dasharray:none;stroke-opacity:1"
         id="path104"
         inkscape:connector-curvature="0" /></g><g
       id="g6335"
       transform="matrix(0.94325943,0,0,1.0008189,17.240124,-28.511747)"><path
         d="M 35.04985,295.90326 H 572.63252"
         style="fill:none;stroke:#000000;stroke-width:0.75;stroke-linecap:round;stroke-linejoin:bevel;stroke-miterlimit:10;stroke-dasharray:none;stroke-opacity:1"
         id="path108"
         inkscape:connector-curvature="0" /><path
         d="M 35.04985,289.40326 H 572.63252"
         style="fill:none;stroke:#000000;stroke-width:0.75;stroke-linecap:round;stroke-linejoin:bevel;stroke-miterlimit:10;stroke-dasharray:none;stroke-opacity:1"
         id="path110"
         inkscape:connector-curvature="0" /><path
         d="M 35.04985,282.90326 H 572.63252"
         style="fill:none;stroke:#000000;stroke-width:0.75;stroke-linecap:round;stroke-linejoin:bevel;stroke-miterlimit:10;stroke-dasharray:none;stroke-opacity:1"
         id="path112"
         inkscape:connector-curvature="0" /><path
         d="M 35.04985,276.40326 H 572.63252"
         style="fill:none;stroke:#000000;stroke-width:0.75;stroke-linecap:round;stroke-linejoin:bevel;stroke-miterlimit:10;stroke-dasharray:none;stroke-opacity:1"
         id="path114"
         inkscape:connector-curvature="0" /><path
         d="M 35.04985,269.90326 H 572.63252"
         style="fill:none;stroke:#000000;stroke-width:0.75;stroke-linecap:round;stroke-linejoin:bevel;stroke-miterlimit:10;stroke-dasharray:none;stroke-opacity:1"
         id="path116"
         inkscape:connector-curvature="0" /></g><g
       id="g6289"
       transform="matrix(0.94325943,0,0,1.0008189,17.240124,-17.362713)"><path
         d="M 35.04985,495.00337 H 572.63252"
         style="fill:none;stroke:#000000;stroke-width:0.75;stroke-linecap:round;stroke-linejoin:bevel;stroke-miterlimit:10;stroke-dasharray:none;stroke-opacity:1"
         id="path120"
         inkscape:connector-curvature="0" /><path
         d="M 35.04985,488.50337 H 572.63252"
         style="fill:none;stroke:#000000;stroke-width:0.75;stroke-linecap:round;stroke-linejoin:bevel;stroke-miterlimit:10;stroke-dasharray:none;stroke-opacity:1"
         id="path122"
         inkscape:connector-curvature="0" /><path
         d="M 35.04985,482.00337 H 572.63252"
         style="fill:none;stroke:#000000;stroke-width:0.75;stroke-linecap:round;stroke-linejoin:bevel;stroke-miterlimit:10;stroke-dasharray:none;stroke-opacity:1"
         id="path124"
         inkscape:connector-curvature="0" /><path
         d="M 35.04985,475.50337 H 572.63252"
         style="fill:none;stroke:#000000;stroke-width:0.75;stroke-linecap:round;stroke-linejoin:bevel;stroke-miterlimit:10;stroke-dasharray:none;stroke-opacity:1"
         id="path126"
         inkscape:connector-curvature="0" /><path
         d="M 35.04985,469.00337 H 572.63252"
         style="fill:none;stroke:#000000;stroke-width:0.75;stroke-linecap:round;stroke-linejoin:bevel;stroke-miterlimit:10;stroke-dasharray:none;stroke-opacity:1"
         id="path128"
         inkscape:connector-curvature="0" /></g><g
       id="g6282"
       transform="matrix(0.94325943,0,0,1.0008189,17.240124,-14.57546)"><path
         d="M 35.04985,544.7784 H 572.63252"
         style="fill:none;stroke:#000000;stroke-width:0.75;stroke-linecap:round;stroke-linejoin:bevel;stroke-miterlimit:10;stroke-dasharray:none;stroke-opacity:1"
         id="path132"
         inkscape:connector-curvature="0" /><path
         d="M 35.04985,538.2784 H 572.63252"
         style="fill:none;stroke:#000000;stroke-width:0.75;stroke-linecap:round;stroke-linejoin:bevel;stroke-miterlimit:10;stroke-dasharray:none;stroke-opacity:1"
         id="path134"
         inkscape:connector-curvature="0" /><path
         d="M 35.04985,531.7784 H 572.63252"
         style="fill:none;stroke:#000000;stroke-width:0.75;stroke-linecap:round;stroke-linejoin:bevel;stroke-miterlimit:10;stroke-dasharray:none;stroke-opacity:1"
         id="path136"
         inkscape:connector-curvature="0" /><path
         d="M 35.04985,525.2784 H 572.63252"
         style="fill:none;stroke:#000000;stroke-width:0.75;stroke-linecap:round;stroke-linejoin:bevel;stroke-miterlimit:10;stroke-dasharray:none;stroke-opacity:1"
         id="path138"
         inkscape:connector-curvature="0" /><path
         d="M 35.04985,518.7784 H 572.63252"
         style="fill:none;stroke:#000000;stroke-width:0.75;stroke-linecap:round;stroke-linejoin:bevel;stroke-miterlimit:10;stroke-dasharray:none;stroke-opacity:1"
         id="path140"
         inkscape:connector-curvature="0" /></g><g
       id="g6275"
       transform="matrix(0.94325943,0,0,1.0008189,17.240124,-11.788207)"><path
         d="M 35.04985,594.55343 H 572.63252"
         style="fill:none;stroke:#000000;stroke-width:0.75;stroke-linecap:round;stroke-linejoin:bevel;stroke-miterlimit:10;stroke-dasharray:none;stroke-opacity:1"
         id="path144"
         inkscape:connector-curvature="0" /><path
         d="M 35.04985,588.05343 H 572.63252"
         style="fill:none;stroke:#000000;stroke-width:0.75;stroke-linecap:round;stroke-linejoin:bevel;stroke-miterlimit:10;stroke-dasharray:none;stroke-opacity:1"
         id="path146"
         inkscape:connector-curvature="0" /><path
         d="M 35.04985,581.55343 H 572.63252"
         style="fill:none;stroke:#000000;stroke-width:0.75;stroke-linecap:round;stroke-linejoin:bevel;stroke-miterlimit:10;stroke-dasharray:none;stroke-opacity:1"
         id="path148"
         inkscape:connector-curvature="0" /><path
         d="M 35.04985,575.05343 H 572.63252"
         style="fill:none;stroke:#000000;stroke-width:0.75;stroke-linecap:round;stroke-linejoin:bevel;stroke-miterlimit:10;stroke-dasharray:none;stroke-opacity:1"
         id="path150"
         inkscape:connector-curvature="0" /><path
         d="M 35.04985,568.55343 H 572.63252"
         style="fill:none;stroke:#000000;stroke-width:0.75;stroke-linecap:round;stroke-linejoin:bevel;stroke-miterlimit:10;stroke-dasharray:none;stroke-opacity:1"
         id="path152"
         inkscape:connector-curvature="0" /></g><g
       id="g6268"
       style="fill:#000677;fill-opacity:1"
       transform="matrix(0.94325943,0,0,1.0008189,17.240124,-9.0009539)"><path
         d="M 35.04985,644.32846 H 572.63252"
         style="fill:#000677;fill-opacity:1;stroke:#000000;stroke-width:0.75;stroke-linecap:round;stroke-linejoin:bevel;stroke-miterlimit:10;stroke-dasharray:none;stroke-opacity:1"
         id="path156"
         inkscape:connector-curvature="0" /><path
         d="M 35.04985,637.82846 H 572.63252"
         style="fill:#000677;fill-opacity:1;stroke:#000000;stroke-width:0.75;stroke-linecap:round;stroke-linejoin:bevel;stroke-miterlimit:10;stroke-dasharray:none;stroke-opacity:1"
         id="path158"
         inkscape:connector-curvature="0" /><path
         d="M 35.04985,631.32846 H 572.63252"
         style="fill:#000677;fill-opacity:1;stroke:#000000;stroke-width:0.75;stroke-linecap:round;stroke-linejoin:bevel;stroke-miterlimit:10;stroke-dasharray:none;stroke-opacity:1"
         id="path160"
         inkscape:connector-curvature="0" /><path
         d="M 35.04985,624.82846 H 572.63252"
         style="fill:#000677;fill-opacity:1;stroke:#000000;stroke-width:0.75;stroke-linecap:round;stroke-linejoin:bevel;stroke-miterlimit:10;stroke-dasharray:none;stroke-opacity:1"
         id="path162"
         inkscape:connector-curvature="0" /><path
         d="M 35.04985,618.32846 H 572.63252"
         style="fill:#000677;fill-opacity:1;stroke:#000000;stroke-width:0.75;stroke-linecap:round;stroke-linejoin:bevel;stroke-miterlimit:10;stroke-dasharray:none;stroke-opacity:1"
         id="path164"
         inkscape:connector-curvature="0" /></g><g
       id="g6261"
       transform="matrix(0.94325943,0,0,1.0008189,17.240124,-6.2137007)"><path
         d="M 35.04985,694.10349 H 572.63252"
         style="fill:none;stroke:#000000;stroke-width:0.75;stroke-linecap:round;stroke-linejoin:bevel;stroke-miterlimit:10;stroke-dasharray:none;stroke-opacity:1"
         id="path168"
         inkscape:connector-curvature="0" /><path
         d="M 35.04985,687.60349 H 572.63252"
         style="fill:none;stroke:#000000;stroke-width:0.75;stroke-linecap:round;stroke-linejoin:bevel;stroke-miterlimit:10;stroke-dasharray:none;stroke-opacity:1"
         id="path170"
         inkscape:connector-curvature="0" /><path
         d="M 35.04985,681.10349 H 572.63252"
         style="fill:none;stroke:#000000;stroke-width:0.75;stroke-linecap:round;stroke-linejoin:bevel;stroke-miterlimit:10;stroke-dasharray:none;stroke-opacity:1"
         id="path172"
         inkscape:connector-curvature="0" /><path
         d="M 35.04985,674.60349 H 572.63252"
         style="fill:none;stroke:#000000;stroke-width:0.75;stroke-linecap:round;stroke-linejoin:bevel;stroke-miterlimit:10;stroke-dasharray:none;stroke-opacity:1"
         id="path174"
         inkscape:connector-curvature="0" /><path
         d="M 35.04985,668.10349 H 572.63252"
         style="fill:none;stroke:#000000;stroke-width:0.75;stroke-linecap:round;stroke-linejoin:bevel;stroke-miterlimit:10;stroke-dasharray:none;stroke-opacity:1"
         id="path176"
         inkscape:connector-curvature="0" /></g><g
       id="g6254"
       transform="matrix(0.94325324,0,0,1.000819,17.240339,-3.4265069)"><path
         d="M 35.049852,743.87868 H 572.63605"
         style="fill:none;stroke:#000000;stroke-width:0.75000495;stroke-linecap:round;stroke-linejoin:bevel;stroke-miterlimit:10;stroke-dasharray:none;stroke-opacity:1"
         id="path180"
         inkscape:connector-curvature="0" /><path
         d="M 35.04985,737.37851 H 572.63252"
         style="fill:none;stroke:#000000;stroke-width:0.75;stroke-linecap:round;stroke-linejoin:bevel;stroke-miterlimit:10;stroke-dasharray:none;stroke-opacity:1"
         id="path182"
         inkscape:connector-curvature="0" /><path
         d="M 35.04985,730.87851 H 572.63252"
         style="fill:none;stroke:#000000;stroke-width:0.75;stroke-linecap:round;stroke-linejoin:bevel;stroke-miterlimit:10;stroke-dasharray:none;stroke-opacity:1"
         id="path184"
         inkscape:connector-curvature="0" /><path
         d="M 35.04985,724.37851 H 572.63252"
         style="fill:none;stroke:#000000;stroke-width:0.75;stroke-linecap:round;stroke-linejoin:bevel;stroke-miterlimit:10;stroke-dasharray:none;stroke-opacity:1"
         id="path186"
         inkscape:connector-curvature="0" /><path
         d="M 35.049852,717.87851 H 572.63605"
         style="fill:none;stroke:#000000;stroke-width:0.75000495;stroke-linecap:round;stroke-linejoin:bevel;stroke-miterlimit:10;stroke-dasharray:none;stroke-opacity:1"
         id="path188"
         inkscape:connector-curvature="0" /></g><text
       style="font-size:10.95940018px;font-family:serif;text-anchor:start;fill:currentColor;stroke-width:4.98131943"
       transform="scale(1,-1)"
       font-size="2.2001"
       id="text1705"
       x="600.70801"
       y="-814.10535"><tspan
         id="tspan1703"
         style="stroke-width:4.98131943" /></text>
<path
       style="opacity:1;fill:none;fill-opacity:1;stroke:#000000;stroke-width:1.21011996;stroke-linecap:butt;stroke-miterlimit:10;stroke-dasharray:none;stroke-dashoffset:0;stroke-opacity:1"
       d="m -118.91049,625.35138 v -26.75025 m -84.43068,0 v 26.75025"
       id="rect1994-2"
       inkscape:connector-curvature="0"
       sodipodi:nodetypes="cccc" /><text
       style="font-size:10.95940018px;font-family:serif;text-anchor:start;fill:currentColor;stroke-width:4.98131943"
       transform="scale(1,-1)"
       font-size="2.2001"
       id="text2013"
       x="-832.30157"
       y="-986.97394"><tspan
         id="tspan2011"
         style="stroke-width:4.98131943" /></text>
<g
       id="g2300"
       transform="matrix(1.3068701,0,0,1.3068701,641.91212,-596.37948)"><line
         id="line2015"
         y2="953.28033"
         x2="-535.09515"
         y1="953.28033"
         x1="-789.53296"
         style="stroke:currentColor;stroke-width:0.49813193;stroke-linecap:round;stroke-linejoin:round" /><line
         id="line2017"
         y2="958.26166"
         x2="-535.09515"
         y1="958.26166"
         x1="-789.53296"
         style="stroke:currentColor;stroke-width:0.49813193;stroke-linecap:round;stroke-linejoin:round" /><line
         id="line2019"
         y2="963.24292"
         x2="-535.09515"
         y1="963.24292"
         x1="-789.53296"
         style="stroke:currentColor;stroke-width:0.49813193;stroke-linecap:round;stroke-linejoin:round" /><line
         id="line2021"
         y2="968.22424"
         x2="-535.09515"
         y1="968.22424"
         x1="-789.53296"
         style="stroke:currentColor;stroke-width:0.49813193;stroke-linecap:round;stroke-linejoin:round" /><line
         id="line2023"
         y2="973.20557"
         x2="-535.09515"
         y1="973.20557"
         x1="-789.53296"
         style="stroke:currentColor;stroke-width:0.49813193;stroke-linecap:round;stroke-linejoin:round" /><rect
         id="rect2025"
         ry="0.0000"
         height="19.925278"
         width="0.94645065"
         y="-973.20557"
         x="-620.92676"
         transform="scale(1,-1)"
         style="fill:currentColor;stroke-width:4.98131943" /><rect
         id="rect2027"
         ry="0.0000"
         height="19.925278"
         width="0.94645065"
         y="-973.20557"
         x="-685.44482"
         transform="scale(1,-1)"
         style="fill:currentColor;stroke-width:4.98131943" /><rect
         id="rect2029"
         ry="0.0000"
         height="19.925278"
         width="0.94645065"
         y="-973.20557"
         x="-555.94299"
         transform="scale(1,-1)"
         style="fill:currentColor;stroke-width:4.98131943" /><rect
         id="rect2031"
         ry="0.49813193"
         height="0.99626386"
         width="9.7449551"
         y="-978.68506"
         x="-551.42542"
         transform="scale(1,-1)"
         style="fill:currentColor;stroke-width:4.98131943" /><rect
         id="rect2033"
         ry="0.49813193"
         height="0.99626386"
         width="9.7449551"
         y="-948.79712"
         x="-748.06848"
         transform="scale(1,-1)"
         style="fill:currentColor;stroke-width:4.98131943" /><a
         transform="matrix(4.9813192,0,0,-4.9813192,-860.64827,1001.1473)"
         id="a2037"
         xlink:href="textedit:///home/sam/M%c3%basica/lilypond/daniel/caligrafia/clave.ly:5:20:21"
         style="color:inherit"><path
           id="path2035"
           d="m 218,136 c 55,0 108,-28 108,-89 0,-71 -55,-121 -102,-149 -35,-21 -75,-34 -116,-34 -55,0 -108,28 -108,89 0,71 55,121 102,149 35,21 75,34 116,34 z"
           transform="matrix(0.004,0,0,-0.004,52.3772,6.1093)"
           inkscape:connector-curvature="0"
           style="fill:currentColor" /></a><rect
         id="rect2039"
         ry="0.19925277"
         height="16.507593"
         width="0.64757144"
         y="-967.29724"
         x="-614.69611"
         transform="scale(1,-1)"
         style="fill:currentColor;stroke-width:4.98131943" /><rect
         id="rect2041"
         ry="0.19925277"
         height="15.677208"
         width="0.64757144"
         y="-962.31592"
         x="-650.01367"
         transform="scale(1,-1)"
         style="fill:currentColor;stroke-width:4.98131943" /><a
         transform="matrix(4.9813192,0,0,-4.9813192,-860.64827,1001.1473)"
         id="a2045"
         xlink:href="textedit:///home/sam/M%c3%basica/lilypond/daniel/caligrafia/clave.ly:5:18:19"
         style="color:inherit"><path
           id="path2043"
           d="m 218,136 c 55,0 108,-28 108,-89 0,-71 -55,-121 -102,-149 -35,-21 -75,-34 -116,-34 -55,0 -108,28 -108,89 0,71 55,121 102,149 35,21 75,34 116,34 z"
           transform="matrix(0.004,0,0,-0.004,49.3749,6.6093)"
           inkscape:connector-curvature="0"
           style="fill:currentColor" /></a><a
         transform="matrix(4.9813192,0,0,-4.9813192,-860.64827,1001.1473)"
         id="a2049"
         xlink:href="textedit:///home/sam/M%c3%basica/lilypond/daniel/caligrafia/clave.ly:5:14:15"
         style="color:inherit"><path
           id="path2047"
           d="m 218,136 c 55,0 108,-28 108,-89 0,-71 -55,-121 -102,-149 -35,-21 -75,-34 -116,-34 -55,0 -108,28 -108,89 0,71 55,121 102,149 35,21 75,34 116,34 z"
           transform="matrix(0.004,0,0,-0.004,42.2849,7.6093)"
           inkscape:connector-curvature="0"
           style="fill:currentColor" /></a><rect
         id="rect2051"
         ry="0.19925277"
         height="16.507593"
         width="0.64757144"
         y="-964.80658"
         x="-635.05878"
         transform="scale(1,-1)"
         style="fill:currentColor;stroke-width:4.98131943" /><a
         transform="matrix(4.9813192,0,0,-4.9813192,-860.64827,1001.1473)"
         id="a2055"
         xlink:href="textedit:///home/sam/M%c3%basica/lilypond/daniel/caligrafia/clave.ly:5:16:17"
         style="color:inherit"><path
           id="path2053"
           d="m 218,136 c 55,0 108,-28 108,-89 0,-71 -55,-121 -102,-149 -35,-21 -75,-34 -116,-34 -55,0 -108,28 -108,89 0,71 55,121 102,149 35,21 75,34 116,34 z"
           transform="matrix(0.004,0,0,-0.004,45.2871,7.1093)"
           inkscape:connector-curvature="0"
           style="fill:currentColor" /></a><a
         transform="matrix(4.9813192,0,0,-4.9813192,-860.64827,1001.1473)"
         id="a2059"
         xlink:href="textedit:///home/sam/M%c3%basica/lilypond/daniel/caligrafia/clave.ly:5:26:27"
         style="color:inherit"><path
           id="path2057"
           d="m 218,136 c 55,0 108,-28 108,-89 0,-71 -55,-121 -102,-149 -35,-21 -75,-34 -116,-34 -55,0 -108,28 -108,89 0,71 55,121 102,149 35,21 75,34 116,34 z"
           transform="matrix(0.004,0,0,-0.004,62.4025,4.6093)"
           inkscape:connector-curvature="0"
           style="fill:currentColor" /></a><rect
         id="rect2061"
         ry="0.19925277"
         height="16.507593"
         width="0.64757144"
         y="-977.25989"
         x="-549.80151"
         transform="scale(1,-1)"
         style="fill:currentColor;stroke-width:4.98131943" /><rect
         id="rect2063"
         ry="0.19925277"
         height="16.507593"
         width="0.64757144"
         y="-969.7879"
         x="-599.74072"
         transform="scale(1,-1)"
         style="fill:currentColor;stroke-width:4.98131943" /><rect
         id="rect2065"
         ry="0.19925277"
         height="16.507593"
         width="0.64757144"
         y="-974.76923"
         x="-569.83038"
         transform="scale(1,-1)"
         style="fill:currentColor;stroke-width:4.98131943" /><a
         transform="matrix(4.9813192,0,0,-4.9813192,-860.64827,1001.1473)"
         id="a2069"
         xlink:href="textedit:///home/sam/M%c3%basica/lilypond/daniel/caligrafia/clave.ly:5:24:25"
         style="color:inherit"><path
           id="path2067"
           d="m 218,136 c 55,0 108,-28 108,-89 0,-71 -55,-121 -102,-149 -35,-21 -75,-34 -116,-34 -55,0 -108,28 -108,89 0,71 55,121 102,149 35,21 75,34 116,34 z"
           transform="matrix(0.004,0,0,-0.004,58.3817,5.1093)"
           inkscape:connector-curvature="0"
           style="fill:currentColor" /></a><rect
         id="rect2071"
         ry="0.19925277"
         height="16.507593"
         width="0.64757144"
         y="-972.27856"
         x="-584.78583"
         transform="scale(1,-1)"
         style="fill:currentColor;stroke-width:4.98131943" /><a
         transform="matrix(4.9813192,0,0,-4.9813192,-860.64827,1001.1473)"
         id="a2075"
         xlink:href="textedit:///home/sam/M%c3%basica/lilypond/daniel/caligrafia/clave.ly:5:22:23"
         style="color:inherit"><path
           id="path2073"
           d="m 218,136 c 55,0 108,-28 108,-89 0,-71 -55,-121 -102,-149 -35,-21 -75,-34 -116,-34 -55,0 -108,28 -108,89 0,71 55,121 102,149 35,21 75,34 116,34 z"
           transform="matrix(0.004,0,0,-0.004,55.3794,5.6093)"
           inkscape:connector-curvature="0"
           style="fill:currentColor" /></a><a
         transform="matrix(4.9813192,0,0,-4.9813192,-860.64827,1001.1473)"
         id="a2079"
         xlink:href="textedit:///home/sam/M%c3%basica/lilypond/daniel/caligrafia/clave.ly:5:8:9"
         style="color:inherit"><path
           id="path2077"
           d="m 218,136 c 55,0 108,-28 108,-89 0,-71 -55,-121 -102,-149 -35,-21 -75,-34 -116,-34 -55,0 -108,28 -108,89 0,71 55,121 102,149 35,21 75,34 116,34 z"
           transform="matrix(0.004,0,0,-0.004,31.9331,9.1093)"
           inkscape:connector-curvature="0"
           style="fill:currentColor" /></a><rect
         id="rect2081"
         ry="0.19925277"
         height="16.507593"
         width="0.64757144"
         y="-970.7149"
         x="-710.68518"
         transform="scale(1,-1)"
         style="fill:currentColor;stroke-width:4.98131943" /><a
         transform="matrix(4.9813192,0,0,-4.9813192,-860.64827,1001.1473)"
         id="a2085"
         xlink:href="textedit:///home/sam/M%c3%basica/lilypond/daniel/caligrafia/clave.ly:5:6:7"
         style="color:inherit"><path
           id="path2083"
           d="m 218,136 c 55,0 108,-28 108,-89 0,-71 -55,-121 -102,-149 -35,-21 -75,-34 -116,-34 -55,0 -108,28 -108,89 0,71 55,121 102,149 35,21 75,34 116,34 z"
           transform="matrix(0.004,0,0,-0.004,28.9309,9.6093)"
           inkscape:connector-curvature="0"
           style="fill:currentColor" /></a><rect
         id="rect2087"
         ry="0.19925277"
         height="16.507593"
         width="0.64757144"
         y="-968.22424"
         x="-725.64056"
         transform="scale(1,-1)"
         style="fill:currentColor;stroke-width:4.98131943" /><a
         transform="matrix(4.9813192,0,0,-4.9813192,-860.64827,1001.1473)"
         id="a2091"
         xlink:href="textedit:///home/sam/M%c3%basica/lilypond/daniel/caligrafia/clave.ly:5:4:5"
         style="color:inherit"><path
           id="path2089"
           d="m 218,136 c 55,0 108,-28 108,-89 0,-71 -55,-121 -102,-149 -35,-21 -75,-34 -116,-34 -55,0 -108,28 -108,89 0,71 55,121 102,149 35,21 75,34 116,34 z"
           transform="matrix(0.004,0,0,-0.004,25.9286,10.1093)"
           inkscape:connector-curvature="0"
           style="fill:currentColor" /></a><rect
         id="rect2093"
         ry="0.19925277"
         height="16.507593"
         width="0.64757144"
         y="-965.73358"
         x="-740.59546"
         transform="scale(1,-1)"
         style="fill:currentColor;stroke-width:4.98131943" /><path
         id="path2095"
         d="m -757.72225,963.78093 c -0.97634,0 -1.4944,0.83686 -1.4944,1.4944 0,0.75716 0.53798,1.53425 1.43462,1.53425 0.0797,0 0.17933,0 0.27895,-0.0199 -0.5579,0.73724 -1.43462,1.17559 -2.39103,1.17559 -2.11208,0 -2.25156,-1.45454 -2.25156,-3.7061 v -1.01619 -1.01619 c 0,-2.25156 0.13948,-3.72603 2.25156,-3.72603 1.59402,0 2.76961,1.39477 3.14819,3.00872 0.0399,0.13948 0.13948,0.19925 0.23911,0.19925 0.11955,0 0.25903,-0.0797 0.25903,-0.2391 0,-1.87298 -2.09216,-3.467 -3.64633,-3.467 -1.35492,0 -2.72976,0.41843 -3.66625,1.39477 -0.97634,1.01619 -1.31507,2.43089 -1.31507,3.84558 0,1.41469 0.33873,2.82939 1.31507,3.84558 0.93649,0.97634 2.31133,1.37484 3.66625,1.37484 1.7335,0 3.18804,-1.25529 3.48692,-2.96886 0.0199,-0.0996 0.0199,-0.19926 0.0199,-0.27896 0,-0.79701 -0.59776,-1.43462 -1.33499,-1.43462 z"
         inkscape:connector-curvature="0"
         style="fill:currentColor;stroke-width:0.01992528" /><path
         id="path2097"
         d="m -780.49686,945.60908 h -0.11955 c -2.15193,0 -3.88543,1.75342 -3.88543,3.92528 0,1.15566 1.05604,2.0523 2.23163,2.0523 1.07597,0 1.89291,-0.93649 1.89291,-2.0523 0,-1.03612 -0.85679,-1.8929 -1.89291,-1.8929 -0.21917,0 -0.41843,0.0399 -0.61768,0.11955 0.51806,-0.77709 1.35492,-1.29515 2.33126,-1.29515 h 0.0797 z m 3.88543,8.60772 c 1.35492,0.4782 2.25156,1.8929 2.25156,3.26774 0,1.79328 -1.31507,3.56663 -3.44707,3.78581 0.4782,-2.31134 0.91656,-4.60274 1.19551,-7.05355 z m -7.71108,4.60274 c 0,-2.68991 2.57036,-4.92155 5.26027,-4.92155 0.55791,0 1.0959,0.0399 1.63388,0.11956 -0.27896,2.53051 -0.73724,4.88169 -1.2553,7.2528 -1.57409,-0.1594 -2.47073,-1.21544 -2.47073,-2.37111 0,-0.87671 0.49813,-1.8132 1.61395,-2.45081 0.0996,-0.0996 0.13947,-0.19925 0.13947,-0.29888 0,-0.21918 -0.19925,-0.43836 -0.43835,-0.43836 -0.0598,0 -0.11955,0.0199 -0.17933,0.0399 -1.59402,0.85679 -2.33126,2.29141 -2.33126,3.68618 0,1.75343 1.15567,3.467 3.18805,3.92528 -0.27896,1.15567 -0.57783,2.33126 -0.91656,3.48693 -2.13201,-2.41096 -4.24409,-4.84185 -4.24409,-8.02989 z m 5.2005,-5.77833 c -3.74595,0 -6.63512,3.42714 -6.63512,7.45205 0,3.52678 2.61021,6.09714 4.94147,8.78705 -0.37858,1.23537 -0.73724,2.49066 -0.89664,3.7858 -0.11955,1.03612 -0.13947,2.07223 -0.13947,3.10835 0,2.2914 1.09589,4.46326 2.96886,5.81818 0.11955,0.0996 0.27896,0.0996 0.39851,0 1.41469,-1.67373 2.65006,-4.8817 2.65006,-7.13325 0,-2.84932 -1.71357,-5.08095 -3.58655,-7.2528 0.41843,-1.35492 0.77709,-2.74969 1.11582,-4.12454 0.0797,0 0.17932,0.0199 0.25902,0.0199 3.08842,0 5.10088,-2.55044 5.10088,-5.2005 0,-1.51432 -0.65754,-3.06849 -2.13201,-4.18431 -0.43836,-0.33873 -0.93649,-0.55791 -1.45454,-0.71731 0.0598,-0.69738 0.0996,-1.39477 0.0996,-2.09215 0,-0.37858 -0.0199,-0.77709 -0.0399,-1.15567 -0.13948,-2.37111 -1.75342,-4.48319 -4.02491,-4.54296 l 0.0199,0.85678 c 1.85305,0.0399 3.04857,1.83313 3.16812,3.80573 0.0199,0.35866 0.0399,0.73724 0.0399,1.09589 0,0.61769 -0.0199,1.21545 -0.0797,1.83313 -0.57783,-0.0996 -1.15567,-0.1594 -1.77335,-0.1594 z m 1.85305,23.47198 c 0,1.09589 -0.0797,1.57409 -0.39851,2.57036 -1.9726,-0.95642 -3.22789,-2.96887 -3.22789,-5.16065 0,-1.47447 0.35865,-2.65006 0.71731,-3.8655 1.59402,1.93275 2.90909,3.9452 2.90909,6.45579 z"
         inkscape:connector-curvature="0"
         style="fill:currentColor;stroke-width:0.01992528" /><a
         transform="matrix(4.9813192,0,0,-4.9813192,-860.64827,1001.1473)"
         id="a2101"
         xlink:href="textedit:///home/sam/M%c3%basica/lilypond/daniel/caligrafia/clave.ly:5:2:3"
         style="color:inherit"><path
           id="path2099"
           d="m 218,136 c 55,0 108,-28 108,-89 0,-71 -55,-121 -102,-149 -35,-21 -75,-34 -116,-34 -55,0 -108,28 -108,89 0,71 55,121 102,149 35,21 75,34 116,34 z"
           transform="matrix(0.004,0,0,-0.004,22.9264,10.6093)"
           inkscape:connector-curvature="0"
           style="fill:currentColor" /></a><rect
         id="rect2103"
         ry="0.19925277"
         height="16.507593"
         width="0.64757144"
         y="-975.69623"
         x="-674.16608"
         transform="scale(1,-1)"
         style="fill:currentColor;stroke-width:4.98131943" /><a
         transform="matrix(4.9813192,0,0,-4.9813192,-860.64827,1001.1473)"
         id="a2107"
         xlink:href="textedit:///home/sam/M%c3%basica/lilypond/daniel/caligrafia/clave.ly:5:12:13"
         style="color:inherit"><path
           id="path2105"
           d="m 218,136 c 55,0 108,-28 108,-89 0,-71 -55,-121 -102,-149 -35,-21 -75,-34 -116,-34 -55,0 -108,28 -108,89 0,71 55,121 102,149 35,21 75,34 116,34 z"
           transform="matrix(0.004,0,0,-0.004,39.2644,8.1093)"
           inkscape:connector-curvature="0"
           style="fill:currentColor" /></a><a
         transform="matrix(4.9813192,0,0,-4.9813192,-860.64827,1001.1473)"
         id="a2111"
         xlink:href="textedit:///home/sam/M%c3%basica/lilypond/daniel/caligrafia/clave.ly:5:10:11"
         style="color:inherit"><path
           id="path2109"
           d="m 218,136 c 55,0 108,-28 108,-89 0,-71 -55,-121 -102,-149 -35,-21 -75,-34 -116,-34 -55,0 -108,28 -108,89 0,71 55,121 102,149 35,21 75,34 116,34 z"
           transform="matrix(0.004,0,0,-0.004,36.2621,8.6093)"
           inkscape:connector-curvature="0"
           style="fill:currentColor" /></a><rect
         id="rect2113"
         ry="0.19925277"
         height="16.507593"
         width="0.64757144"
         y="-978.18689"
         x="-659.21069"
         transform="scale(1,-1)"
         style="fill:currentColor;stroke-width:4.98131943" /><rect
         id="rect2115"
         ry="0.19925277"
         height="16.507593"
         width="0.64757144"
         y="-973.20557"
         x="-695.72974"
         transform="scale(1,-1)"
         style="fill:currentColor;stroke-width:4.98131943" /></g><g
       id="g2369-8-1"
       transform="translate(-587.85357,-377.97675)"><g
         style="fill:#ff0000;stroke:#ff0000"
         id="g2360-9-9"><line
           style="fill:#ff0000;stroke:#ff0000;stroke-width:0.6509937;stroke-linecap:round;stroke-linejoin:round"
           x1="199.60207"
           y1="899.52704"
           x2="401.15497"
           y2="899.52704"
           id="line1707-7-4" /><line
           style="fill:#ff0000;stroke:#ff0000;stroke-width:0.6509937;stroke-linecap:round;stroke-linejoin:round"
           x1="199.60207"
           y1="906.03699"
           x2="401.15497"
           y2="906.03699"
           id="line1709-3-7" /><line
           style="fill:#ff0000;stroke:#ff0000;stroke-width:0.6509937;stroke-linecap:round;stroke-linejoin:round"
           x1="199.60207"
           y1="912.54694"
           x2="401.15497"
           y2="912.54694"
           id="line1711-6-8" /><line
           style="fill:#ff0000;stroke:#ff0000;stroke-width:0.6509937;stroke-linecap:round;stroke-linejoin:round"
           x1="199.60207"
           y1="919.05688"
           x2="401.15497"
           y2="919.05688"
           id="line1713-1-4" /><line
           style="fill:#ff0000;stroke:#ff0000;stroke-width:0.6509937;stroke-linecap:round;stroke-linejoin:round"
           x1="199.60207"
           y1="925.56683"
           x2="401.15497"
           y2="925.56683"
           id="line1715-2-5" /></g><path
         id="path1749-9-0"
         d="m 211.4111,889.50179 h -0.15624 c -2.81229,0 -5.07775,2.29149 -5.07775,5.12983 0,1.5103 1.38011,2.68209 2.91645,2.68209 1.40615,0 2.47379,-1.22387 2.47379,-2.68209 0,-1.35407 -1.11971,-2.47377 -2.47379,-2.47377 -0.28643,0 -0.54683,0.0521 -0.80723,0.15623 0.67704,-1.01555 1.77071,-1.69259 3.04666,-1.69259 h 0.10416 z m 5.07775,11.24917 c 1.77071,0.62495 2.9425,2.47377 2.9425,4.27051 0,2.34359 -1.71863,4.66112 -4.50487,4.94756 0.62494,-3.02062 1.19782,-6.01518 1.56237,-9.21807 z m -10.07738,6.01518 c 0,-3.51536 3.35913,-6.43182 6.87449,-6.43182 0.72912,0 1.4322,0.0521 2.13527,0.15625 -0.36456,3.30704 -0.96348,6.37973 -1.64051,9.47846 -2.05713,-0.20831 -3.22893,-1.58842 -3.22893,-3.09873 0,-1.14574 0.65099,-2.36962 2.10923,-3.20289 0.13016,-0.13016 0.18227,-0.26039 0.18227,-0.3906 0,-0.28644 -0.2604,-0.57288 -0.57287,-0.57288 -0.0781,0 -0.15624,0.026 -0.23436,0.0521 -2.08318,1.11971 -3.04666,2.99457 -3.04666,4.81736 0,2.2915 1.51031,4.53092 4.16637,5.12983 -0.36456,1.51031 -0.75515,3.04665 -1.19782,4.55696 -2.78626,-3.15081 -5.54648,-6.32767 -5.54648,-10.49402 z m 6.79638,-7.55152 c -4.89547,0 -8.67124,4.47882 -8.67124,9.73886 0,4.60904 3.41121,7.96817 6.45786,11.48353 -0.49476,1.61447 -0.96348,3.25497 -1.17179,4.94755 -0.15624,1.35407 -0.18227,2.70814 -0.18227,4.06221 0,2.99456 1.43218,5.8329 3.87991,7.60361 0.15624,0.13016 0.36457,0.13016 0.5208,0 1.84882,-2.18735 3.46329,-6.37975 3.46329,-9.32224 0,-3.72369 -2.23942,-6.64014 -4.68716,-9.47846 0.54684,-1.77071 1.01556,-3.59349 1.45823,-5.39024 0.10416,0 0.23435,0.026 0.33851,0.026 4.03616,0 6.66619,-3.3331 6.66619,-6.79638 0,-1.97902 -0.85932,-4.01012 -2.78626,-5.46835 -0.57288,-0.44268 -1.22387,-0.72912 -1.9009,-0.93743 0.0781,-0.91139 0.13017,-1.82279 0.13017,-2.73417 0,-0.49476 -0.026,-1.01556 -0.0521,-1.51031 -0.18228,-3.09874 -2.29149,-5.85895 -5.26003,-5.93706 l 0.026,1.1197 c 2.42169,0.0521 3.98408,2.39566 4.14032,4.97359 0.026,0.46873 0.0521,0.96348 0.0521,1.43219 0,0.80724 -0.026,1.58844 -0.10416,2.39566 -0.75515,-0.13016 -1.51031,-0.20831 -2.31754,-0.20831 z m 2.4217,30.67483 c 0,1.43218 -0.10416,2.05713 -0.52081,3.35912 -2.57793,-1.24991 -4.21843,-3.87993 -4.21843,-6.7443 0,-1.92694 0.46871,-3.46328 0.93743,-5.0517 2.08318,2.52585 3.80181,5.15586 3.80181,8.43688 z"
         inkscape:connector-curvature="0"
         style="fill:currentColor;stroke-width:0.02603975" /></g><g
       id="g6227"
       transform="translate(15.272867,2.3029352e-5)"><path
         d="M 35.038972,793.66447 H 542.09767"
         style="fill:none;stroke:#000000;stroke-width:0.75;stroke-linecap:round;stroke-linejoin:bevel;stroke-miterlimit:10;stroke-dasharray:none;stroke-opacity:1"
         id="path192"
         inkscape:connector-curvature="0" /><path
         d="M 35.03897,787.15893 H 542.09434"
         style="fill:none;stroke:#000000;stroke-width:0.75;stroke-linecap:round;stroke-linejoin:bevel;stroke-miterlimit:10;stroke-dasharray:none;stroke-opacity:1"
         id="path194"
         inkscape:connector-curvature="0" /><path
         d="M 35.03897,780.65357 H 542.09434"
         style="fill:none;stroke:#000000;stroke-width:0.75;stroke-linecap:round;stroke-linejoin:bevel;stroke-miterlimit:10;stroke-dasharray:none;stroke-opacity:1"
         id="path196"
         inkscape:connector-curvature="0" /><path
         d="M 35.03897,774.1482 H 542.09434"
         style="fill:none;stroke:#000000;stroke-width:0.75;stroke-linecap:round;stroke-linejoin:bevel;stroke-miterlimit:10;stroke-dasharray:none;stroke-opacity:1"
         id="path198"
         inkscape:connector-curvature="0" /><path
         d="M 35.038972,767.64284 H 542.09767"
         style="fill:none;stroke:#000000;stroke-width:0.75;stroke-linecap:round;stroke-linejoin:bevel;stroke-miterlimit:10;stroke-dasharray:none;stroke-opacity:1"
         id="path200"
         inkscape:connector-curvature="0" /></g><path
       style="fill:currentColor;stroke-width:0.02603975"
       inkscape:connector-curvature="0"
       d="m 91.265478,757.60479 h -0.15624 c -2.81229,0 -5.07775,2.29149 -5.07775,5.12983 0,1.5103 1.38011,2.68209 2.91645,2.68209 1.40615,0 2.47379,-1.22387 2.47379,-2.68209 0,-1.35407 -1.11971,-2.47377 -2.47379,-2.47377 -0.28643,0 -0.54683,0.0521 -0.80723,0.15623 0.67704,-1.01555 1.77071,-1.69259 3.04666,-1.69259 h 0.10416 z m 5.07775,11.24917 c 1.77071,0.62495 2.9425,2.47377 2.9425,4.27051 0,2.34359 -1.71863,4.66112 -4.50487,4.94756 0.62494,-3.02062 1.19782,-6.01518 1.56237,-9.21807 z m -10.07738,6.01518 c 0,-3.51536 3.35913,-6.43182 6.87449,-6.43182 0.72912,0 1.4322,0.0521 2.13527,0.15625 -0.36456,3.30704 -0.96348,6.37973 -1.64051,9.47846 -2.05713,-0.20831 -3.22893,-1.58842 -3.22893,-3.09873 0,-1.14574 0.65099,-2.36962 2.10923,-3.20289 0.13016,-0.13016 0.18227,-0.26039 0.18227,-0.3906 0,-0.28644 -0.2604,-0.57288 -0.57287,-0.57288 -0.0781,0 -0.15624,0.026 -0.23436,0.0521 -2.08318,1.11971 -3.04666,2.99457 -3.04666,4.81736 0,2.2915 1.51031,4.53092 4.16637,5.12983 -0.36456,1.51031 -0.75515,3.04665 -1.19782,4.55696 -2.78626,-3.15081 -5.54648,-6.32767 -5.54648,-10.49402 z m 6.79638,-7.55152 c -4.89547,0 -8.67124,4.47882 -8.67124,9.73886 0,4.60904 3.41121,7.96817 6.45786,11.48353 -0.49476,1.61447 -0.96348,3.25497 -1.17179,4.94755 -0.15624,1.35407 -0.18227,2.70814 -0.18227,4.06221 0,2.99456 1.43218,5.8329 3.87991,7.60361 0.15624,0.13016 0.36457,0.13016 0.5208,0 1.84882,-2.18735 3.46329,-6.37975 3.46329,-9.32224 0,-3.72369 -2.23942,-6.64014 -4.68716,-9.47846 0.54684,-1.77071 1.01556,-3.59349 1.45823,-5.39024 0.10416,0 0.23435,0.026 0.33851,0.026 4.03616,0 6.666192,-3.3331 6.666192,-6.79638 0,-1.97902 -0.85932,-4.01012 -2.786262,-5.46835 -0.57288,-0.44268 -1.22387,-0.72912 -1.9009,-0.93743 0.0781,-0.91139 0.13017,-1.82279 0.13017,-2.73417 0,-0.49476 -0.026,-1.01556 -0.0521,-1.51031 -0.18228,-3.09874 -2.29149,-5.85895 -5.26003,-5.93706 l 0.026,1.1197 c 2.42169,0.0521 3.98408,2.39566 4.14032,4.97359 0.026,0.46873 0.0521,0.96348 0.0521,1.43219 0,0.80724 -0.026,1.58844 -0.10416,2.39566 -0.75515,-0.13016 -1.51031,-0.20831 -2.31754,-0.20831 z m 2.4217,30.67483 c 0,1.43218 -0.10416,2.05713 -0.52081,3.35912 -2.57793,-1.24991 -4.21843,-3.87993 -4.21843,-6.7443 0,-1.92694 0.46871,-3.46328 0.93743,-5.0517 2.08318,2.52585 3.80181,5.15586 3.80181,8.43688 z"
       id="path1749" /><path
       style="opacity:1;fill:none;fill-opacity:1;stroke:#000000;stroke-width:1.21011996;stroke-linecap:butt;stroke-miterlimit:10;stroke-dasharray:none;stroke-dashoffset:0;stroke-opacity:1"
       d="M 134.97811,794.02875 V 767.2785 m -84.430674,0 v 26.75025"
       id="rect1994-2-2"
       inkscape:connector-curvature="0"
       sodipodi:nodetypes="cccc" /><path
       style="fill:currentColor;stroke-width:0.02603975"
       inkscape:connector-curvature="0"
       d="m 175.69615,757.62923 h -0.15624 c -2.81229,0 -5.07775,2.29149 -5.07775,5.12983 0,1.5103 1.38011,2.68209 2.91645,2.68209 1.40615,0 2.47379,-1.22387 2.47379,-2.68209 0,-1.35407 -1.11971,-2.47377 -2.47379,-2.47377 -0.28643,0 -0.54683,0.0521 -0.80723,0.15623 0.67704,-1.01555 1.77071,-1.69259 3.04666,-1.69259 h 0.10416 z m 5.07775,11.24917 c 1.77071,0.62495 2.9425,2.47377 2.9425,4.27051 0,2.34359 -1.71863,4.66112 -4.50487,4.94756 0.62494,-3.02062 1.19782,-6.01518 1.56237,-9.21807 z m -10.07738,6.01518 c 0,-3.51536 3.35913,-6.43182 6.87449,-6.43182 0.72912,0 1.4322,0.0521 2.13527,0.15625 -0.36456,3.30704 -0.96348,6.37973 -1.64051,9.47846 -2.05713,-0.20831 -3.22893,-1.58842 -3.22893,-3.09873 0,-1.14574 0.65099,-2.36962 2.10923,-3.20289 0.13016,-0.13016 0.18227,-0.26039 0.18227,-0.3906 0,-0.28644 -0.2604,-0.57288 -0.57287,-0.57288 -0.0781,0 -0.15624,0.026 -0.23436,0.0521 -2.08318,1.11971 -3.04666,2.99457 -3.04666,4.81736 0,2.2915 1.51031,4.53092 4.16637,5.12983 -0.36456,1.51031 -0.75515,3.04665 -1.19782,4.55696 -2.78626,-3.15081 -5.54648,-6.32767 -5.54648,-10.49402 z m 6.79638,-7.55152 c -4.89547,0 -8.67124,4.47882 -8.67124,9.73886 0,4.60904 3.41121,7.96817 6.45786,11.48353 -0.49476,1.61447 -0.96348,3.25497 -1.17179,4.94755 -0.15624,1.35407 -0.18227,2.70814 -0.18227,4.06221 0,2.99456 1.43218,5.8329 3.87991,7.60361 0.15624,0.13016 0.36457,0.13016 0.5208,0 1.84882,-2.18735 3.46329,-6.37975 3.46329,-9.32224 0,-3.72369 -2.23942,-6.64014 -4.68716,-9.47846 0.54684,-1.77071 1.01556,-3.59349 1.45823,-5.39024 0.10416,0 0.23435,0.026 0.33851,0.026 4.03616,0 6.66619,-3.3331 6.66619,-6.79638 0,-1.97902 -0.85932,-4.01012 -2.78626,-5.46835 -0.57288,-0.44268 -1.22387,-0.72912 -1.9009,-0.93743 0.0781,-0.91139 0.13017,-1.82279 0.13017,-2.73417 0,-0.49476 -0.026,-1.01556 -0.0521,-1.51031 -0.18228,-3.09874 -2.29149,-5.85895 -5.26003,-5.93706 l 0.026,1.1197 c 2.42169,0.0521 3.98408,2.39566 4.14032,4.97359 0.026,0.46873 0.0521,0.96348 0.0521,1.43219 0,0.80724 -0.026,1.58844 -0.10416,2.39566 -0.75515,-0.13016 -1.51031,-0.20831 -2.31754,-0.20831 z m 2.4217,30.67483 c 0,1.43218 -0.10416,2.05713 -0.52081,3.35912 -2.57793,-1.24991 -4.21843,-3.87993 -4.21843,-6.7443 0,-1.92694 0.46871,-3.46328 0.93743,-5.0517 2.08318,2.52585 3.80181,5.15586 3.80181,8.43688 z"
       id="path1749-9" /><path
       style="opacity:1;fill:none;fill-opacity:1;stroke:#000000;stroke-width:1.21011996;stroke-linecap:butt;stroke-miterlimit:10;stroke-dasharray:none;stroke-dashoffset:0;stroke-opacity:1"
       d="M 219.40878,794.02875 V 767.2785 m -84.43067,0 v 26.75025"
       id="rect1994-2-2-3"
       inkscape:connector-curvature="0"
       sodipodi:nodetypes="cccc" /><path
       style="fill:currentColor;stroke-width:0.02603975"
       inkscape:connector-curvature="0"
       d="m 232.76457,757.60479 h -0.15624 c -2.81229,0 -5.07775,2.29149 -5.07775,5.12983 0,1.5103 1.38011,2.68209 2.91645,2.68209 1.40615,0 2.47379,-1.22387 2.47379,-2.68209 0,-1.35407 -1.11971,-2.47377 -2.47379,-2.47377 -0.28643,0 -0.54683,0.0521 -0.80723,0.15623 0.67704,-1.01555 1.77071,-1.69259 3.04666,-1.69259 h 0.10416 z m 5.07775,11.24917 c 1.77071,0.62495 2.9425,2.47377 2.9425,4.27051 0,2.34359 -1.71863,4.66112 -4.50487,4.94756 0.62494,-3.02062 1.19782,-6.01518 1.56237,-9.21807 z m -10.07738,6.01518 c 0,-3.51536 3.35913,-6.43182 6.87449,-6.43182 0.72912,0 1.4322,0.0521 2.13527,0.15625 -0.36456,3.30704 -0.96348,6.37973 -1.64051,9.47846 -2.05713,-0.20831 -3.22893,-1.58842 -3.22893,-3.09873 0,-1.14574 0.65099,-2.36962 2.10923,-3.20289 0.13016,-0.13016 0.18227,-0.26039 0.18227,-0.3906 0,-0.28644 -0.2604,-0.57288 -0.57287,-0.57288 -0.0781,0 -0.15624,0.026 -0.23436,0.0521 -2.08318,1.11971 -3.04666,2.99457 -3.04666,4.81736 0,2.2915 1.51031,4.53092 4.16637,5.12983 -0.36456,1.51031 -0.75515,3.04665 -1.19782,4.55696 -2.78626,-3.15081 -5.54648,-6.32767 -5.54648,-10.49402 z m 6.79638,-7.55152 c -4.89547,0 -8.67124,4.47882 -8.67124,9.73886 0,4.60904 3.41121,7.96817 6.45786,11.48353 -0.49476,1.61447 -0.96348,3.25497 -1.17179,4.94755 -0.15624,1.35407 -0.18227,2.70814 -0.18227,4.06221 0,2.99456 1.43218,5.8329 3.87991,7.60361 0.15624,0.13016 0.36457,0.13016 0.5208,0 1.84882,-2.18735 3.46329,-6.37975 3.46329,-9.32224 0,-3.72369 -2.23942,-6.64014 -4.68716,-9.47846 0.54684,-1.77071 1.01556,-3.59349 1.45823,-5.39024 0.10416,0 0.23435,0.026 0.33851,0.026 4.03616,0 6.66619,-3.3331 6.66619,-6.79638 0,-1.97902 -0.85932,-4.01012 -2.78626,-5.46835 -0.57288,-0.44268 -1.22387,-0.72912 -1.9009,-0.93743 0.0781,-0.91139 0.13017,-1.82279 0.13017,-2.73417 0,-0.49476 -0.026,-1.01556 -0.0521,-1.51031 -0.18228,-3.09874 -2.29149,-5.85895 -5.26003,-5.93706 l 0.026,1.1197 c 2.42169,0.0521 3.98408,2.39566 4.14032,4.97359 0.026,0.46873 0.0521,0.96348 0.0521,1.43219 0,0.80724 -0.026,1.58844 -0.10416,2.39566 -0.75515,-0.13016 -1.51031,-0.20831 -2.31754,-0.20831 z m 2.4217,30.67483 c 0,1.43218 -0.10416,2.05713 -0.52081,3.35912 -2.57793,-1.24991 -4.21843,-3.87993 -4.21843,-6.7443 0,-1.92694 0.46871,-3.46328 0.93743,-5.0517 2.08318,2.52585 3.80181,5.15586 3.80181,8.43688 z"
       id="path1749-3" /><path
       style="opacity:1;fill:none;fill-opacity:1;stroke:#000000;stroke-width:1.21011996;stroke-linecap:butt;stroke-miterlimit:10;stroke-dasharray:none;stroke-dashoffset:0;stroke-opacity:1"
       d="M 303.83945,794.02875 V 767.2785 m -84.43067,0 v 26.75025"
       id="rect1994-2-2-6"
       inkscape:connector-curvature="0"
       sodipodi:nodetypes="cccc" /><path
       style="fill:currentColor;stroke-width:0.02603975"
       inkscape:connector-curvature="0"
       d="M 317.19524,757.60479 H 317.039 c -2.81229,0 -5.07775,2.29149 -5.07775,5.12983 0,1.5103 1.38011,2.68209 2.91645,2.68209 1.40615,0 2.47379,-1.22387 2.47379,-2.68209 0,-1.35407 -1.11971,-2.47377 -2.47379,-2.47377 -0.28643,0 -0.54683,0.0521 -0.80723,0.15623 0.67704,-1.01555 1.77071,-1.69259 3.04666,-1.69259 h 0.10416 z m 5.07775,11.24917 c 1.77071,0.62495 2.9425,2.47377 2.9425,4.27051 0,2.34359 -1.71863,4.66112 -4.50487,4.94756 0.62494,-3.02062 1.19782,-6.01518 1.56237,-9.21807 z m -10.07738,6.01518 c 0,-3.51536 3.35913,-6.43182 6.87449,-6.43182 0.72912,0 1.4322,0.0521 2.13527,0.15625 -0.36456,3.30704 -0.96348,6.37973 -1.64051,9.47846 -2.05713,-0.20831 -3.22893,-1.58842 -3.22893,-3.09873 0,-1.14574 0.65099,-2.36962 2.10923,-3.20289 0.13016,-0.13016 0.18227,-0.26039 0.18227,-0.3906 0,-0.28644 -0.2604,-0.57288 -0.57287,-0.57288 -0.0781,0 -0.15624,0.026 -0.23436,0.0521 -2.08318,1.11971 -3.04666,2.99457 -3.04666,4.81736 0,2.2915 1.51031,4.53092 4.16637,5.12983 -0.36456,1.51031 -0.75515,3.04665 -1.19782,4.55696 -2.78626,-3.15081 -5.54648,-6.32767 -5.54648,-10.49402 z m 6.79638,-7.55152 c -4.89547,0 -8.67124,4.47882 -8.67124,9.73886 0,4.60904 3.41121,7.96817 6.45786,11.48353 -0.49476,1.61447 -0.96348,3.25497 -1.17179,4.94755 -0.15624,1.35407 -0.18227,2.70814 -0.18227,4.06221 0,2.99456 1.43218,5.8329 3.87991,7.60361 0.15624,0.13016 0.36457,0.13016 0.5208,0 1.84882,-2.18735 3.46329,-6.37975 3.46329,-9.32224 0,-3.72369 -2.23942,-6.64014 -4.68716,-9.47846 0.54684,-1.77071 1.01556,-3.59349 1.45823,-5.39024 0.10416,0 0.23435,0.026 0.33851,0.026 4.03616,0 6.66619,-3.3331 6.66619,-6.79638 0,-1.97902 -0.85932,-4.01012 -2.78626,-5.46835 -0.57288,-0.44268 -1.22387,-0.72912 -1.9009,-0.93743 0.0781,-0.91139 0.13017,-1.82279 0.13017,-2.73417 0,-0.49476 -0.026,-1.01556 -0.0521,-1.51031 -0.18228,-3.09874 -2.29149,-5.85895 -5.26003,-5.93706 l 0.026,1.1197 c 2.42169,0.0521 3.98408,2.39566 4.14032,4.97359 0.026,0.46873 0.0521,0.96348 0.0521,1.43219 0,0.80724 -0.026,1.58844 -0.10416,2.39566 -0.75515,-0.13016 -1.51031,-0.20831 -2.31754,-0.20831 z m 2.4217,30.67483 c 0,1.43218 -0.10416,2.05713 -0.52081,3.35912 -2.57793,-1.24991 -4.21843,-3.87993 -4.21843,-6.7443 0,-1.92694 0.46871,-3.46328 0.93743,-5.0517 2.08318,2.52585 3.80181,5.15586 3.80181,8.43688 z"
       id="path1749-1" /><path
       style="opacity:1;fill:none;fill-opacity:1;stroke:#000000;stroke-width:1.21011996;stroke-linecap:butt;stroke-miterlimit:10;stroke-dasharray:none;stroke-dashoffset:0;stroke-opacity:1"
       d="M 388.27012,794.02875 V 767.2785 m -84.43067,0 v 26.75025"
       id="rect1994-2-2-0"
       inkscape:connector-curvature="0"
       sodipodi:nodetypes="cccc" /><path
       style="fill:currentColor;stroke-width:0.02603975"
       inkscape:connector-curvature="0"
       d="m 401.62592,757.60479 h -0.15624 c -2.81229,0 -5.07775,2.29149 -5.07775,5.12983 0,1.5103 1.38011,2.68209 2.91645,2.68209 1.40615,0 2.47379,-1.22387 2.47379,-2.68209 0,-1.35407 -1.11971,-2.47377 -2.47379,-2.47377 -0.28643,0 -0.54683,0.0521 -0.80723,0.15623 0.67704,-1.01555 1.77071,-1.69259 3.04666,-1.69259 h 0.10416 z m 5.07775,11.24917 c 1.77071,0.62495 2.9425,2.47377 2.9425,4.27051 0,2.34359 -1.71863,4.66112 -4.50487,4.94756 0.62494,-3.02062 1.19782,-6.01518 1.56237,-9.21807 z m -10.07738,6.01518 c 0,-3.51536 3.35913,-6.43182 6.87449,-6.43182 0.72912,0 1.4322,0.0521 2.13527,0.15625 -0.36456,3.30704 -0.96348,6.37973 -1.64051,9.47846 -2.05713,-0.20831 -3.22893,-1.58842 -3.22893,-3.09873 0,-1.14574 0.65099,-2.36962 2.10923,-3.20289 0.13016,-0.13016 0.18227,-0.26039 0.18227,-0.3906 0,-0.28644 -0.2604,-0.57288 -0.57287,-0.57288 -0.0781,0 -0.15624,0.026 -0.23436,0.0521 -2.08318,1.11971 -3.04666,2.99457 -3.04666,4.81736 0,2.2915 1.51031,4.53092 4.16637,5.12983 -0.36456,1.51031 -0.75515,3.04665 -1.19782,4.55696 -2.78626,-3.15081 -5.54648,-6.32767 -5.54648,-10.49402 z m 6.79638,-7.55152 c -4.89547,0 -8.67124,4.47882 -8.67124,9.73886 0,4.60904 3.41121,7.96817 6.45786,11.48353 -0.49476,1.61447 -0.96348,3.25497 -1.17179,4.94755 -0.15624,1.35407 -0.18227,2.70814 -0.18227,4.06221 0,2.99456 1.43218,5.8329 3.87991,7.60361 0.15624,0.13016 0.36457,0.13016 0.5208,0 1.84882,-2.18735 3.46329,-6.37975 3.46329,-9.32224 0,-3.72369 -2.23942,-6.64014 -4.68716,-9.47846 0.54684,-1.77071 1.01556,-3.59349 1.45823,-5.39024 0.10416,0 0.23435,0.026 0.33851,0.026 4.03616,0 6.66619,-3.3331 6.66619,-6.79638 0,-1.97902 -0.85932,-4.01012 -2.78626,-5.46835 -0.57288,-0.44268 -1.22387,-0.72912 -1.9009,-0.93743 0.0781,-0.91139 0.13017,-1.82279 0.13017,-2.73417 0,-0.49476 -0.026,-1.01556 -0.0521,-1.51031 -0.18228,-3.09874 -2.29149,-5.85895 -5.26003,-5.93706 l 0.026,1.1197 c 2.42169,0.0521 3.98408,2.39566 4.14032,4.97359 0.026,0.46873 0.0521,0.96348 0.0521,1.43219 0,0.80724 -0.026,1.58844 -0.10416,2.39566 -0.75515,-0.13016 -1.51031,-0.20831 -2.31754,-0.20831 z m 2.4217,30.67483 c 0,1.43218 -0.10416,2.05713 -0.52081,3.35912 -2.57793,-1.24991 -4.21843,-3.87993 -4.21843,-6.7443 0,-1.92694 0.46871,-3.46328 0.93743,-5.0517 2.08318,2.52585 3.80181,5.15586 3.80181,8.43688 z"
       id="path1749-6" /><path
       style="opacity:1;fill:none;fill-opacity:1;stroke:#000000;stroke-width:1.21011996;stroke-linecap:butt;stroke-miterlimit:10;stroke-dasharray:none;stroke-dashoffset:0;stroke-opacity:1"
       d="M 472.70079,794.02875 V 767.2785 m -84.43067,0 v 26.75025"
       id="rect1994-2-2-32"
       inkscape:connector-curvature="0"
       sodipodi:nodetypes="cccc" /><path
       style="fill:currentColor;stroke-width:0.02603975"
       inkscape:connector-curvature="0"
       d="m 486.05658,757.60479 h -0.15624 c -2.81229,0 -5.07775,2.29149 -5.07775,5.12983 0,1.5103 1.38011,2.68209 2.91645,2.68209 1.40615,0 2.47379,-1.22387 2.47379,-2.68209 0,-1.35407 -1.11971,-2.47377 -2.47379,-2.47377 -0.28643,0 -0.54683,0.0521 -0.80723,0.15623 0.67704,-1.01555 1.77071,-1.69259 3.04666,-1.69259 h 0.10416 z m 5.07775,11.24917 c 1.77071,0.62495 2.9425,2.47377 2.9425,4.27051 0,2.34359 -1.71863,4.66112 -4.50487,4.94756 0.62494,-3.02062 1.19782,-6.01518 1.56237,-9.21807 z m -10.07738,6.01518 c 0,-3.51536 3.35913,-6.43182 6.87449,-6.43182 0.72912,0 1.4322,0.0521 2.13527,0.15625 -0.36456,3.30704 -0.96348,6.37973 -1.64051,9.47846 -2.05713,-0.20831 -3.22893,-1.58842 -3.22893,-3.09873 0,-1.14574 0.65099,-2.36962 2.10923,-3.20289 0.13016,-0.13016 0.18227,-0.26039 0.18227,-0.3906 0,-0.28644 -0.2604,-0.57288 -0.57287,-0.57288 -0.0781,0 -0.15624,0.026 -0.23436,0.0521 -2.08318,1.11971 -3.04666,2.99457 -3.04666,4.81736 0,2.2915 1.51031,4.53092 4.16637,5.12983 -0.36456,1.51031 -0.75515,3.04665 -1.19782,4.55696 -2.78626,-3.15081 -5.54648,-6.32767 -5.54648,-10.49402 z m 6.79638,-7.55152 c -4.89547,0 -8.67124,4.47882 -8.67124,9.73886 0,4.60904 3.41121,7.96817 6.45786,11.48353 -0.49476,1.61447 -0.96348,3.25497 -1.17179,4.94755 -0.15624,1.35407 -0.18227,2.70814 -0.18227,4.06221 0,2.99456 1.43218,5.8329 3.87991,7.60361 0.15624,0.13016 0.36457,0.13016 0.5208,0 1.84882,-2.18735 3.46329,-6.37975 3.46329,-9.32224 0,-3.72369 -2.23942,-6.64014 -4.68716,-9.47846 0.54684,-1.77071 1.01556,-3.59349 1.45823,-5.39024 0.10416,0 0.23435,0.026 0.33851,0.026 4.03616,0 6.66619,-3.3331 6.66619,-6.79638 0,-1.97902 -0.85932,-4.01012 -2.78626,-5.46835 -0.57288,-0.44268 -1.22387,-0.72912 -1.9009,-0.93743 0.0781,-0.91139 0.13017,-1.82279 0.13017,-2.73417 0,-0.49476 -0.026,-1.01556 -0.0521,-1.51031 -0.18228,-3.09874 -2.29149,-5.85895 -5.26003,-5.93706 l 0.026,1.1197 c 2.42169,0.0521 3.98408,2.39566 4.14032,4.97359 0.026,0.46873 0.0521,0.96348 0.0521,1.43219 0,0.80724 -0.026,1.58844 -0.10416,2.39566 -0.75515,-0.13016 -1.51031,-0.20831 -2.31754,-0.20831 z m 2.4217,30.67483 c 0,1.43218 -0.10416,2.05713 -0.52081,3.35912 -2.57793,-1.24991 -4.21843,-3.87993 -4.21843,-6.7443 0,-1.92694 0.46871,-3.46328 0.93743,-5.0517 2.08318,2.52585 3.80181,5.15586 3.80181,8.43688 z"
       id="path1749-0" /><path
       style="opacity:1;fill:none;fill-opacity:1;stroke:#000000;stroke-width:1.21011996;stroke-linecap:butt;stroke-miterlimit:10;stroke-dasharray:none;stroke-dashoffset:0;stroke-opacity:1"
       d="M 557.13146,794.02875 V 767.2785 m -84.43067,0 v 26.75025"
       id="rect1994-2-2-61"
       inkscape:connector-curvature="0"
       sodipodi:nodetypes="cccc" /><path
       style="fill:currentColor;stroke-width:0.02603975"
       inkscape:connector-curvature="0"
       d="m 486.30627,704.97193 h -0.15624 c -2.81229,0 -5.07775,2.29149 -5.07775,5.12983 0,1.5103 1.38011,2.68209 2.91645,2.68209 1.40615,0 2.47379,-1.22387 2.47379,-2.68209 0,-1.35407 -1.11971,-2.47377 -2.47379,-2.47377 -0.28643,0 -0.54683,0.0521 -0.80723,0.15623 0.67704,-1.01555 1.77071,-1.69259 3.04666,-1.69259 h 0.10416 z m 5.07775,11.24917 c 1.77071,0.62495 2.9425,2.47377 2.9425,4.27051 0,2.34359 -1.71863,4.66112 -4.50487,4.94756 0.62494,-3.02062 1.19782,-6.01518 1.56237,-9.21807 z m -10.07738,6.01518 c 0,-3.51536 3.35913,-6.43182 6.87449,-6.43182 0.72912,0 1.4322,0.0521 2.13527,0.15625 -0.36456,3.30704 -0.96348,6.37973 -1.64051,9.47846 -2.05713,-0.20831 -3.22893,-1.58842 -3.22893,-3.09873 0,-1.14574 0.65099,-2.36962 2.10923,-3.20289 0.13016,-0.13016 0.18227,-0.26039 0.18227,-0.3906 0,-0.28644 -0.2604,-0.57288 -0.57287,-0.57288 -0.0781,0 -0.15624,0.026 -0.23436,0.0521 -2.08318,1.11971 -3.04666,2.99457 -3.04666,4.81736 0,2.2915 1.51031,4.53092 4.16637,5.12983 -0.36456,1.51031 -0.75515,3.04665 -1.19782,4.55696 -2.78626,-3.15081 -5.54648,-6.32767 -5.54648,-10.49402 z m 6.79638,-7.55152 c -4.89547,0 -8.67124,4.47882 -8.67124,9.73886 0,4.60904 3.41121,7.96817 6.45786,11.48353 -0.49476,1.61447 -0.96348,3.25497 -1.17179,4.94755 -0.15624,1.35407 -0.18227,2.70814 -0.18227,4.06221 0,2.99456 1.43218,5.8329 3.87991,7.60361 0.15624,0.13016 0.36457,0.13016 0.5208,0 1.84882,-2.18735 3.46329,-6.37975 3.46329,-9.32224 0,-3.72369 -2.23942,-6.64014 -4.68716,-9.47846 0.54684,-1.77071 1.01556,-3.59349 1.45823,-5.39024 0.10416,0 0.23435,0.026 0.33851,0.026 4.03616,0 6.66619,-3.3331 6.66619,-6.79638 0,-1.97902 -0.85932,-4.01012 -2.78626,-5.46835 -0.57288,-0.44268 -1.22387,-0.72912 -1.9009,-0.93743 0.0781,-0.91139 0.13017,-1.82279 0.13017,-2.73417 0,-0.49476 -0.026,-1.01556 -0.0521,-1.51031 -0.18228,-3.09874 -2.29149,-5.85895 -5.26003,-5.93706 l 0.026,1.1197 c 2.42169,0.0521 3.98408,2.39566 4.14032,4.97359 0.026,0.46873 0.0521,0.96348 0.0521,1.43219 0,0.80724 -0.026,1.58844 -0.10416,2.39566 -0.75515,-0.13016 -1.51031,-0.20831 -2.31754,-0.20831 z m 2.4217,30.67483 c 0,1.43218 -0.10416,2.05713 -0.52081,3.35912 -2.57793,-1.24991 -4.21843,-3.87993 -4.21843,-6.7443 0,-1.92694 0.46871,-3.46328 0.93743,-5.0517 2.08318,2.52585 3.80181,5.15586 3.80181,8.43688 z"
       id="path1749-0-5" /><path
       style="opacity:1;fill:none;fill-opacity:1;stroke:#000000;stroke-width:1.21011996;stroke-linecap:butt;stroke-miterlimit:10;stroke-dasharray:none;stroke-dashoffset:0;stroke-opacity:1"
       d="m 557.13485,741.4258 v -26.75025 m -84.43067,0 v 26.75025"
       id="rect1994-2-2-61-5"
       inkscape:connector-curvature="0"
       sodipodi:nodetypes="cccc" /><path
       style="opacity:1;fill:none;fill-opacity:1;stroke:#000000;stroke-width:1.21011996;stroke-linecap:butt;stroke-miterlimit:10;stroke-dasharray:none;stroke-dashoffset:0;stroke-opacity:1"
       d="m 134.9782,741.4258 v -26.75025 m -84.430675,0 v 26.75025"
       id="rect1994-2-2-61-5-6"
       inkscape:connector-curvature="0"
       sodipodi:nodetypes="cccc" /><path
       style="opacity:1;fill:none;fill-opacity:1;stroke:#000000;stroke-width:1.21011996;stroke-linecap:butt;stroke-miterlimit:10;stroke-dasharray:none;stroke-dashoffset:0;stroke-opacity:1"
       d="m 219.40886,741.4258 v -26.75025 m -84.43066,0 v 26.75025"
       id="rect1994-2-2-61-5-5"
       inkscape:connector-curvature="0"
       sodipodi:nodetypes="cccc" /><path
       style="opacity:1;fill:none;fill-opacity:1;stroke:#000000;stroke-width:1.21011996;stroke-linecap:butt;stroke-miterlimit:10;stroke-dasharray:none;stroke-dashoffset:0;stroke-opacity:1"
       d="m 303.83953,741.4258 v -26.75025 m -84.43067,0 v 26.75025"
       id="rect1994-2-2-61-5-69"
       inkscape:connector-curvature="0"
       sodipodi:nodetypes="cccc" /><path
       style="opacity:1;fill:none;fill-opacity:1;stroke:#000000;stroke-width:1.21011996;stroke-linecap:butt;stroke-miterlimit:10;stroke-dasharray:none;stroke-dashoffset:0;stroke-opacity:1"
       d="m 388.2702,741.4258 v -26.75025 m -84.43067,0 v 26.75025"
       id="rect1994-2-2-61-5-3"
       inkscape:connector-curvature="0"
       sodipodi:nodetypes="cccc" /><path
       style="opacity:1;fill:none;fill-opacity:1;stroke:#000000;stroke-width:1.21011996;stroke-linecap:butt;stroke-miterlimit:10;stroke-dasharray:none;stroke-dashoffset:0;stroke-opacity:1"
       d="m 134.97819,688.82267 v -26.75025 m -84.430665,0 v 26.75025"
       id="rect1994-2-2-61-5-7"
       inkscape:connector-curvature="0"
       sodipodi:nodetypes="cccc" /><path
       style="opacity:1;fill:none;fill-opacity:1;stroke:#000000;stroke-width:1.21011996;stroke-linecap:butt;stroke-miterlimit:10;stroke-dasharray:none;stroke-dashoffset:0;stroke-opacity:1"
       d="m 219.40886,688.82267 v -26.75025 m -84.43067,0 v 26.75025"
       id="rect1994-2-2-61-5-4"
       inkscape:connector-curvature="0"
       sodipodi:nodetypes="cccc" /><path
       style="opacity:1;fill:none;fill-opacity:1;stroke:#000000;stroke-width:1.21011996;stroke-linecap:butt;stroke-miterlimit:10;stroke-dasharray:none;stroke-dashoffset:0;stroke-opacity:1"
       d="m 303.83953,688.82267 v -26.75025 m -84.43067,0 v 26.75025"
       id="rect1994-2-2-61-5-52"
       inkscape:connector-curvature="0"
       sodipodi:nodetypes="cccc" /><path
       style="opacity:1;fill:none;fill-opacity:1;stroke:#000000;stroke-width:1.21011996;stroke-linecap:butt;stroke-miterlimit:10;stroke-dasharray:none;stroke-dashoffset:0;stroke-opacity:1"
       d="m 388.2702,688.82267 v -26.75025 m -84.43067,0 v 26.75025"
       id="rect1994-2-2-61-5-54"
       inkscape:connector-curvature="0"
       sodipodi:nodetypes="cccc" /><path
       style="opacity:1;fill:none;fill-opacity:1;stroke:#000000;stroke-width:1.21011996;stroke-linecap:butt;stroke-miterlimit:10;stroke-dasharray:none;stroke-dashoffset:0;stroke-opacity:1"
       d="m 557.13485,688.82267 v -26.75025 m -84.43067,0 v 26.75025"
       id="rect1994-2-2-61-5-74"
       inkscape:connector-curvature="0"
       sodipodi:nodetypes="cccc" /></g></svg>